<svg width="50" height="50" viewBox="0 0 50 50" fill="none" xmlns="http://www.w3.org/2000/svg">
<path d="M39.5832 21.1876C39.5843 21.4988 39.5156 21.8063 39.3822 22.0875C39.2488 22.3687 39.0541 22.6165 38.8124 22.8126L26.3124 32.8751C25.9396 33.1815 25.472 33.349 24.9895 33.349C24.5069 33.349 24.0393 33.1815 23.6665 32.8751L11.1665 22.4584C10.7411 22.1048 10.4735 21.5966 10.4228 21.0457C10.372 20.4949 10.5421 19.9464 10.8957 19.5209C11.2493 19.0954 11.7575 18.8279 12.3084 18.7771C12.8593 18.7263 13.4078 18.8964 13.8332 19.2501L24.9999 28.5626L36.1665 19.5626C36.4724 19.3078 36.8447 19.146 37.2396 19.0962C37.6345 19.0465 38.0354 19.1109 38.3948 19.2818C38.7543 19.4528 39.0572 19.7231 39.2678 20.0609C39.4784 20.3986 39.5879 20.7896 39.5832 21.1876Z" fill="black"/>
</svg>
