<svg width="15" height="15" viewBox="0 0 15 15" fill="none" xmlns="http://www.w3.org/2000/svg">
<path d="M13.3929 0H1.60714C0.719866 0 0 0.719866 0 1.60714V13.3929C0 14.2801 0.719866 15 1.60714 15H13.3929C14.2801 15 15 14.2801 15 13.3929V1.60714C15 0.719866 14.2801 0 13.3929 0ZM9.2846 12.8471C9.00335 12.8973 8.89955 12.7232 8.89955 12.5792C8.89955 12.3984 8.90625 11.4743 8.90625 10.7277C8.90625 10.2054 8.73214 9.87388 8.5279 9.69978C9.76674 9.5625 11.0725 9.39174 11.0725 7.25223C11.0725 6.64286 10.8549 6.33817 10.5 5.94643C10.5569 5.80246 10.7478 5.20982 10.4431 4.43973C9.97768 4.29576 8.91295 5.03906 8.91295 5.03906C8.47098 4.91518 7.99219 4.85156 7.52009 4.85156C7.04799 4.85156 6.5692 4.91518 6.12723 5.03906C6.12723 5.03906 5.0625 4.29576 4.5971 4.43973C4.29241 5.20647 4.47991 5.79911 4.54018 5.94643C4.18527 6.33817 4.01786 6.64286 4.01786 7.25223C4.01786 9.3817 5.26674 9.5625 6.50558 9.69978C6.34487 9.84375 6.20089 10.0915 6.15067 10.4464C5.83259 10.5904 5.01897 10.8382 4.53348 9.98103C4.22879 9.45201 3.67969 9.40848 3.67969 9.40848C3.13728 9.40179 3.64286 9.75 3.64286 9.75C4.00446 9.91741 4.25893 10.5603 4.25893 10.5603C4.5837 11.5547 6.13728 11.2199 6.13728 11.2199C6.13728 11.6853 6.14397 12.442 6.14397 12.5792C6.14397 12.7232 6.04353 12.8973 5.75893 12.8471C3.54911 12.1071 2.00223 10.0045 2.00223 7.54687C2.00223 4.47321 4.35268 2.13951 7.42634 2.13951C10.5 2.13951 12.9911 4.47321 12.9911 7.54687C12.9944 10.0045 11.4944 12.1105 9.2846 12.8471ZM6 10.8013C5.93638 10.8147 5.87612 10.7879 5.86942 10.7444C5.86272 10.6942 5.90625 10.6507 5.96987 10.6373C6.03348 10.6306 6.09375 10.6574 6.10045 10.7009C6.11049 10.7444 6.06696 10.7879 6 10.8013ZM5.68192 10.7712C5.68192 10.8147 5.6317 10.8516 5.56473 10.8516C5.49107 10.8583 5.44085 10.8214 5.44085 10.7712C5.44085 10.7277 5.49107 10.6908 5.55804 10.6908C5.62165 10.6842 5.68192 10.721 5.68192 10.7712ZM5.22321 10.7344C5.20982 10.7779 5.14286 10.798 5.08594 10.7779C5.02232 10.7645 4.97879 10.7143 4.99219 10.6708C5.00558 10.6272 5.07254 10.6071 5.12946 10.6205C5.19643 10.6406 5.23996 10.6908 5.22321 10.7344ZM4.81138 10.5536C4.78125 10.5904 4.71763 10.5837 4.66741 10.5335C4.61719 10.49 4.60379 10.4263 4.63728 10.3962C4.66741 10.3594 4.73103 10.3661 4.78125 10.4163C4.82478 10.4598 4.84152 10.5268 4.81138 10.5536ZM4.5067 10.2489C4.47656 10.269 4.41964 10.2489 4.38281 10.1987C4.34598 10.1484 4.34598 10.0915 4.38281 10.0681C4.41964 10.0379 4.47656 10.0614 4.5067 10.1116C4.54353 10.1618 4.54353 10.2221 4.5067 10.2489ZM4.28906 9.92411C4.25893 9.95424 4.2087 9.9375 4.17188 9.90402C4.13504 9.86049 4.12835 9.81027 4.15848 9.78683C4.18862 9.7567 4.23884 9.77344 4.27567 9.80692C4.3125 9.85045 4.3192 9.90067 4.28906 9.92411ZM4.06473 9.67634C4.05134 9.70647 4.00781 9.71317 3.97098 9.68973C3.92746 9.66964 3.90737 9.63281 3.92076 9.60268C3.93415 9.58259 3.97098 9.57254 4.01451 9.58928C4.05804 9.61272 4.07812 9.64955 4.06473 9.67634Z" fill="black"/>
</svg>
