<svg width="586" height="966" viewBox="0 0 586 966" fill="none" xmlns="http://www.w3.org/2000/svg">
<g filter="url(#filter0_d_1309_582)">
<path d="M139.674 192.704C139.664 193.396 139.511 194.109 138.986 194.559C132.716 199.933 100.995 188.534 66.045 168.105C31.0946 147.675 5.59651 125.629 7.20283 117.53C7.33729 116.852 7.88364 116.368 8.48133 116.02L135.636 42.1503C138.324 40.5891 141.687 42.555 141.645 45.6626L139.674 192.704Z" fill="#9B5DE5"/>
<path d="M139.674 192.704C139.664 193.396 139.511 194.109 138.986 194.559C132.716 199.933 100.995 188.534 66.045 168.105C31.0946 147.675 5.59651 125.629 7.20283 117.53C7.33729 116.852 7.88364 116.368 8.48133 116.02L135.636 42.1503C138.324 40.5891 141.687 42.555 141.645 45.6626L139.674 192.704Z" fill="#0CFFFF"/>
<path d="M139.674 192.704C139.664 193.396 139.511 194.109 138.986 194.559C132.716 199.933 100.995 188.534 66.045 168.105C31.0946 147.675 5.59651 125.629 7.20283 117.53C7.33729 116.852 7.88364 116.368 8.48133 116.02L135.636 42.1503C138.324 40.5891 141.687 42.555 141.645 45.6626L139.674 192.704Z" fill="#9556EB"/>
<ellipse cx="73.8512" cy="155.133" rx="76.3066" ry="15.1383" transform="rotate(30.307 73.8512 155.133)" fill="#FEDF46"/>
<path d="M66.045 168.105C100.995 188.534 132.716 199.933 138.986 194.559C139.511 194.109 139.664 193.396 139.674 192.704L141.645 45.6626C141.687 42.555 138.324 40.5891 135.636 42.1503L8.48133 116.02C7.88363 116.368 7.33729 116.852 7.20283 117.53C5.59651 125.629 31.0946 147.675 66.045 168.105Z" stroke="#202020" stroke-width="4" stroke-linejoin="round"/>
<path d="M21.2106 117.911C22.2977 118.107 23.3376 117.384 23.5331 116.297C23.7287 115.21 23.006 114.17 21.9189 113.975L21.2106 117.911ZM33.1853 116.925C32.1359 116.58 31.0057 117.151 30.6608 118.2C30.3159 119.25 30.887 120.38 31.9363 120.725L33.1853 116.925ZM57.8163 131.746C58.8041 132.24 60.0055 131.84 60.4998 130.852C60.994 129.864 60.5939 128.663 59.6061 128.169L57.8163 131.746ZM69.7427 133.458C68.7715 132.931 67.5576 133.292 67.0314 134.263C66.5051 135.234 66.8657 136.448 67.8369 136.974L69.7427 133.458ZM92.2856 151.284C93.2195 151.874 94.4547 151.595 95.0446 150.661C95.6345 149.727 95.3557 148.492 94.4218 147.902L92.2856 151.284ZM103.997 154.169C103.083 153.548 101.84 153.786 101.219 154.699C100.598 155.613 100.836 156.857 101.749 157.478L103.997 154.169ZM124.061 174.665C124.879 175.407 126.143 175.346 126.886 174.529C127.629 173.711 127.568 172.446 126.75 171.704L124.061 174.665ZM134.897 180.008C134.184 179.165 132.922 179.059 132.079 179.773C131.235 180.486 131.13 181.748 131.843 182.591L134.897 180.008ZM8.4246 118.358C11.0536 117.115 15.2666 116.842 21.2106 117.911L21.9189 113.975C15.7169 112.859 10.4859 112.958 6.71437 114.742L8.4246 118.358ZM31.9363 120.725C39.3237 123.153 48.0047 126.837 57.8163 131.746L59.6061 128.169C49.6795 123.202 40.8122 119.431 33.1853 116.925L31.9363 120.725ZM67.8369 136.974C71.8033 139.124 75.919 141.444 80.1748 143.931L82.1933 140.478C77.9031 137.97 73.7498 135.629 69.7427 133.458L67.8369 136.974ZM80.1748 143.931C84.4146 146.409 88.4554 148.864 92.2856 151.284L94.4218 147.902C90.5508 145.457 86.4707 142.978 82.1933 140.478L80.1748 143.931ZM101.749 157.478C110.773 163.608 118.274 169.41 124.061 174.665L126.75 171.704C120.787 166.289 113.128 160.373 103.997 154.169L101.749 157.478ZM131.843 182.591C133.872 184.989 135.361 187.155 136.327 189.061C137.3 190.98 137.686 192.523 137.66 193.715L141.659 193.803C141.705 191.719 141.038 189.507 139.895 187.252C138.744 184.983 137.053 182.557 134.897 180.008L131.843 182.591Z" fill="#202020"/>
</g>
<g filter="url(#filter1_d_1309_582)">
<rect x="27.4297" y="319.886" width="105.831" height="75.0047" transform="rotate(14.3617 27.4297 319.886)" fill="#EE66BB"/>
<rect x="45.7132" y="247.128" width="106.166" height="75.2168" transform="rotate(14.3617 45.7132 247.128)" fill="#FEDF46"/>
<path d="M158.164 291.668L143.782 287.986L128.909 346.073L110.354 418.543L150.388 351.573L170.406 318.088L190.423 284.603L161.846 277.286L158.164 291.668Z" fill="#9B5DE5"/>
<path d="M158.164 291.668L143.782 287.986L128.909 346.073L110.354 418.543L150.388 351.573L170.406 318.088L190.423 284.603L161.846 277.286L158.164 291.668Z" fill="#0CFFFF"/>
<path d="M158.164 291.668L143.782 287.986L128.909 346.073L110.354 418.543L150.388 351.573L170.406 318.088L190.423 284.603L161.846 277.286L158.164 291.668Z" fill="#9556EB"/>
<path d="M147.464 273.604L143.782 287.986L158.164 291.668L161.846 277.286L147.464 273.604Z" fill="#41FF8D"/>
<path d="M190.423 284.603L192.14 285.629L193.514 283.33L190.919 282.666L190.423 284.603ZM110.354 418.543L109.858 420.48L111.304 420.85L112.07 419.569L110.354 418.543ZM158.164 291.668L157.668 293.605L159.605 294.102L160.101 292.164L158.164 291.668ZM142.666 347.531C141.596 347.257 140.507 347.902 140.233 348.973C139.959 350.043 140.604 351.132 141.674 351.406L142.666 347.531ZM111.288 339.497C110.218 339.223 109.128 339.868 108.854 340.938C108.58 342.008 109.226 343.098 110.296 343.372L111.288 339.497ZM97.0344 339.976C98.1045 340.25 99.194 339.605 99.468 338.535C99.742 337.465 99.0967 336.375 98.0266 336.101L97.0344 339.976ZM80.4696 331.606C79.3995 331.332 78.31 331.977 78.036 333.047C77.762 334.118 78.4074 335.207 79.4774 335.481L80.4696 331.606ZM65.4692 331.894C66.5392 332.168 67.6288 331.523 67.9027 330.453C68.1767 329.383 67.5314 328.293 66.4613 328.019L65.4692 331.894ZM49.2778 323.62C48.2078 323.346 47.1182 323.991 46.8443 325.061C46.5703 326.131 47.2156 327.221 48.2857 327.495L49.2778 323.62ZM45.1106 247.397L45.6067 245.459L43.6692 244.963L43.1731 246.901L45.1106 247.397ZM8.00001 392.336L6.06251 391.84L5.56642 393.777L7.50392 394.273L8.00001 392.336ZM34.651 324.004C35.721 324.278 36.8106 323.632 37.0846 322.562C37.3585 321.492 36.7132 320.403 35.6431 320.129L34.651 324.004ZM145.719 288.482L149.402 274.1L145.527 273.108L141.844 287.489L145.719 288.482ZM143.286 289.923L157.668 293.605L158.66 289.73L144.278 286.048L143.286 289.923ZM146.968 275.541L161.35 279.224L162.342 275.349L147.96 271.666L146.968 275.541ZM161.35 279.224L189.927 286.541L190.919 282.666L162.342 275.349L161.35 279.224ZM160.101 292.164L163.784 277.782L159.909 276.79L156.226 291.172L160.101 292.164ZM148.672 350.547L108.637 417.516L112.07 419.569L152.105 352.599L148.672 350.547ZM150.884 349.635L142.666 347.531L141.674 351.406L149.892 353.51L150.884 349.635ZM112.291 419.039L130.847 346.569L126.972 345.577L108.416 418.047L112.291 419.039ZM130.847 346.569L145.719 288.482L141.844 287.489L126.972 345.577L130.847 346.569ZM129.405 344.136L111.288 339.497L110.296 343.372L128.413 348.011L129.405 344.136ZM98.0266 336.101L80.4696 331.606L79.4774 335.481L97.0344 339.976L98.0266 336.101ZM66.4613 328.019L49.2778 323.62L48.2857 327.495L65.4692 331.894L66.4613 328.019ZM44.6145 249.334L146.968 275.541L147.96 271.666L45.6067 245.459L44.6145 249.334ZM7.50392 394.273L109.858 420.48L110.85 416.605L8.49609 390.398L7.50392 394.273ZM43.1731 246.901L24.6178 319.37L28.4928 320.362L47.0481 247.893L43.1731 246.901ZM24.6178 319.37L6.06251 391.84L9.9375 392.832L28.4928 320.362L24.6178 319.37ZM35.6431 320.129L27.0514 317.929L26.0592 321.804L34.651 324.004L35.6431 320.129ZM188.706 283.577L168.689 317.062L172.122 319.114L192.14 285.629L188.706 283.577ZM168.689 317.062L148.672 350.547L152.105 352.599L172.122 319.114L168.689 317.062Z" fill="#202020"/>
</g>
<g filter="url(#filter2_d_1309_582)">
<path d="M303.72 179.519L244.67 194.638L270.608 295.941L329.658 280.822L303.72 179.519Z" fill="#EE66BB"/>
<path d="M244.67 194.638L196.645 184.003L222.444 284.765L270.608 295.941L244.67 194.638Z" fill="#9B5DE5"/>
<path d="M244.67 194.638L196.645 184.003L222.444 284.765L270.608 295.941L244.67 194.638Z" fill="#0CFFFF"/>
<path d="M244.67 194.638L196.645 184.003L222.444 284.765L270.608 295.941L244.67 194.638Z" fill="#9556EB"/>
<path d="M340.988 147.045L303.72 179.519L329.658 280.822L366.788 247.807L353.888 197.426L340.988 147.045Z" fill="#00B9FB"/>
<path d="M244.67 194.638L303.72 179.519L340.988 147.045L292.565 135.953L233.516 151.072L196.645 184.003L244.67 194.638Z" fill="#41FF8D"/>
<path d="M329.658 280.822L330.154 282.759C330.463 282.68 330.749 282.528 330.987 282.316L329.658 280.822ZM270.608 295.941L270.156 297.889C270.469 297.962 270.794 297.958 271.105 297.878L270.608 295.941ZM340.988 147.045L342.926 146.549C342.74 145.824 342.165 145.263 341.435 145.096L340.988 147.045ZM196.645 184.003L195.312 182.512C194.755 183.009 194.522 183.776 194.707 184.5L196.645 184.003ZM233.516 151.072L233.02 149.135C232.709 149.214 232.423 149.367 232.184 149.581L233.516 151.072ZM292.565 135.953L293.012 134.004C292.701 133.932 292.378 133.936 292.069 134.016L292.565 135.953ZM366.788 247.807L368.116 249.302C368.676 248.804 368.911 248.036 368.725 247.311L366.788 247.807ZM222.444 284.765L220.506 285.261C220.692 285.985 221.264 286.545 221.992 286.713L222.444 284.765ZM245.167 196.575L304.216 181.456L303.224 177.581L244.174 192.7L245.167 196.575ZM329.162 278.884L270.112 294.003L271.105 297.878L330.154 282.759L329.162 278.884ZM305.034 181.026L342.302 148.553L339.674 145.537L302.406 178.011L305.034 181.026ZM196.212 185.956L244.238 196.591L245.103 192.685L197.077 182.051L196.212 185.956ZM197.977 185.495L234.848 152.564L232.184 149.581L195.312 182.512L197.977 185.495ZM234.012 153.01L293.062 137.891L292.069 134.016L233.02 149.135L234.012 153.01ZM292.119 137.903L340.542 148.995L341.435 145.096L293.012 134.004L292.119 137.903ZM242.733 195.134L268.671 296.437L272.546 295.445L246.608 194.142L242.733 195.134ZM331.596 280.326L305.658 179.023L301.783 180.015L327.721 281.318L331.596 280.326ZM194.707 184.5L220.506 285.261L224.381 284.269L198.582 183.507L194.707 184.5ZM221.992 286.713L270.156 297.889L271.061 293.993L222.896 282.817L221.992 286.713ZM330.987 282.316L368.116 249.302L365.459 246.312L328.329 279.327L330.987 282.316ZM339.051 147.541L351.95 197.922L355.825 196.93L342.926 146.549L339.051 147.541ZM351.95 197.922L364.85 248.303L368.725 247.311L355.825 196.93L351.95 197.922Z" fill="#202020"/>
<path d="M240.035 269.777L252.319 258.738" stroke="#202020" stroke-width="4" stroke-linecap="round" stroke-linejoin="round"/>
<path d="M222.008 283.076C221.179 283.806 221.099 285.07 221.829 285.899C222.559 286.728 223.823 286.808 224.652 286.078L222.008 283.076ZM230.068 281.307C230.897 280.577 230.977 279.313 230.247 278.484C229.517 277.656 228.253 277.575 227.425 278.305L230.068 281.307ZM224.652 286.078L230.068 281.307L227.425 278.305L222.008 283.076L224.652 286.078Z" fill="#202020"/>
<path d="M345.034 242.893L328.957 239.116" stroke="#202020" stroke-width="4" stroke-linecap="round" stroke-linejoin="round"/>
<path d="M367.235 245.892C368.313 246.134 368.99 247.204 368.748 248.281C368.506 249.359 367.437 250.037 366.359 249.795L367.235 245.892ZM359.316 248.214C358.238 247.972 357.561 246.903 357.803 245.825C358.044 244.747 359.114 244.069 360.192 244.311L359.316 248.214ZM366.359 249.795L359.316 248.214L360.192 244.311L367.235 245.892L366.359 249.795Z" fill="#202020"/>
<path d="M265.685 248.929C264.615 249.203 263.97 250.293 264.244 251.363C264.518 252.433 265.607 253.078 266.678 252.804L265.685 248.929ZM284.006 248.367C285.076 248.093 285.722 247.004 285.448 245.933C285.174 244.863 284.084 244.218 283.014 244.492L284.006 248.367ZM266.678 252.804L284.006 248.367L283.014 244.492L265.685 248.929L266.678 252.804Z" fill="#202020"/>
<path d="M294.461 241.561C293.391 241.835 292.745 242.925 293.019 243.995C293.293 245.065 294.383 245.71 295.453 245.436L294.461 241.561ZM312.464 241.081C313.534 240.807 314.179 239.717 313.905 238.647C313.631 237.577 312.542 236.932 311.472 237.206L312.464 241.081ZM295.453 245.436L312.464 241.081L311.472 237.206L294.461 241.561L295.453 245.436Z" fill="#202020"/>
</g>
<path d="M198.161 500.889C229.04 528.318 276.309 525.52 303.738 494.64C331.166 463.761 328.369 416.492 297.489 389.064C266.609 361.635 219.341 364.432 191.912 395.312C164.483 426.192 167.281 473.46 198.161 500.889Z" fill="#00B9FB" stroke="#202020" stroke-width="4"/>
<line x1="294.778" y1="389.113" x2="194.61" y2="395.041" stroke="#202020" stroke-width="4" stroke-linecap="round"/>
<path d="M192.547 395.008L298.316 390.004L304.497 494.447L198.582 502.285L192.547 395.008Z" fill="#EE66BB" stroke="#202020"/>
<line x1="297.364" y1="388.96" x2="303.625" y2="494.758" stroke="#202020" stroke-width="4" stroke-linecap="round"/>
<line x1="198.203" y1="499.585" x2="192.108" y2="396.602" stroke="#202020" stroke-width="4" stroke-linecap="round"/>
<line x1="2" y1="-2" x2="107.983" y2="-2" transform="matrix(0.998253 -0.0590801 -0.0590801 -0.998253 195.928 498.898)" stroke="#202020" stroke-width="4" stroke-linecap="round"/>
<path d="M295.906 487.684L259.007 454.908" stroke="#202020" stroke-width="3.5" stroke-linecap="round"/>
<path d="M248.572 459.642L250.404 490.609" stroke="#202020" stroke-width="3.5" stroke-linecap="round"/>
<path d="M253.784 450.269C250.861 453.561 245.823 453.859 242.532 450.935C239.241 448.012 238.942 442.974 241.866 439.683C244.789 436.392 249.827 436.094 253.118 439.017C256.409 441.94 256.707 446.978 253.784 450.269Z" fill="#41FF8D" stroke="#202020" stroke-width="4"/>
<g filter="url(#filter3_d_1309_582)">
<path d="M494.764 522.778C526.145 494.903 528.988 446.867 501.114 415.485C473.239 384.104 425.203 381.261 393.821 409.135C362.44 437.01 359.597 485.046 387.471 516.428C415.346 547.809 463.382 550.652 494.764 522.778Z" fill="#9B5DE5"/>
<path d="M494.764 522.778C526.145 494.903 528.988 446.867 501.114 415.485C473.239 384.104 425.203 381.261 393.821 409.135C362.44 437.01 359.597 485.046 387.471 516.428C415.346 547.809 463.382 550.652 494.764 522.778Z" fill="#0CFFFF"/>
<path d="M494.764 522.778C526.145 494.903 528.988 446.867 501.114 415.485C473.239 384.104 425.203 381.261 393.821 409.135C362.44 437.01 359.597 485.046 387.471 516.428C415.346 547.809 463.382 550.652 494.764 522.778Z" fill="#9556EB"/>
<path d="M389.458 514.291L443.823 464.499L395.459 410.051L389.458 514.291Z" fill="#00B9FB"/>
<path d="M443.823 464.499L389.458 514.291C443.164 585.198 569.985 501.59 500.493 414.162L443.823 464.499Z" fill="#EE66BB"/>
<path d="M389.458 514.291L388.959 514.262L388.948 514.446L389.059 514.593L389.458 514.291ZM395.459 410.051L395.479 409.551L394.988 409.532L394.96 410.022L395.459 410.051ZM500.493 414.162L500.884 413.851L500.742 413.671L500.513 413.662L500.493 414.162ZM389.796 514.66L444.16 464.868L443.485 464.13L389.12 513.922L389.796 514.66ZM444.196 464.167L395.833 409.719L395.085 410.383L443.449 464.831L444.196 464.167ZM394.96 410.022L388.959 514.262L389.957 514.32L395.958 410.08L394.96 410.022ZM444.155 464.873L500.825 414.536L500.161 413.788L443.491 464.125L444.155 464.873ZM500.513 413.662L395.479 409.551L395.44 410.551L500.473 414.661L500.513 413.662ZM389.059 514.593C416.13 550.333 461.599 547.08 491.48 523.997C506.431 512.448 517.528 495.909 520.507 476.739C523.488 457.558 518.332 435.802 500.884 413.851L500.102 414.473C517.4 436.236 522.451 457.716 519.519 476.585C516.585 495.464 505.65 511.788 490.869 523.206C461.286 546.058 416.492 549.155 389.856 513.989L389.059 514.593Z" fill="#202020"/>
<path d="M388.503 515.322C385.072 518.478 346.048 452.157 394.929 411.054C394.929 411.054 391.934 512.165 388.503 515.322Z" fill="#41FF8D"/>
<path d="M388.503 515.322L388.842 515.69L388.503 515.322ZM394.929 411.054L395.428 411.069L395.462 409.952L394.607 410.671L394.929 411.054ZM388.165 514.954C388.203 514.918 388.236 514.938 388.178 514.926C388.102 514.911 387.964 514.855 387.759 514.712C387.353 514.429 386.816 513.9 386.177 513.117C384.905 511.56 383.308 509.099 381.628 505.909C378.272 499.532 374.617 490.3 372.59 479.691C368.537 458.478 370.994 431.833 395.25 411.436L394.607 410.671C369.983 431.377 367.512 458.445 371.608 479.879C373.656 490.594 377.345 499.919 380.743 506.375C382.441 509.6 384.074 512.124 385.402 513.75C386.062 514.558 386.668 515.171 387.187 515.533C387.444 515.712 387.714 515.854 387.984 515.907C388.271 515.964 388.589 515.922 388.842 515.69L388.165 514.954ZM394.929 411.054C394.429 411.039 394.429 411.039 394.429 411.04C394.429 411.041 394.429 411.042 394.429 411.044C394.429 411.047 394.429 411.051 394.428 411.057C394.428 411.069 394.427 411.088 394.427 411.112C394.425 411.161 394.423 411.233 394.42 411.329C394.414 411.52 394.406 411.804 394.394 412.175C394.372 412.916 394.338 414.003 394.294 415.389C394.205 418.159 394.075 422.12 393.907 426.884C393.573 436.412 393.092 449.147 392.503 461.981C391.914 474.816 391.219 487.744 390.456 497.66C390.075 502.618 389.677 506.816 389.269 509.869C389.064 511.396 388.859 512.627 388.653 513.518C388.551 513.965 388.451 514.315 388.355 514.569C388.307 514.697 388.264 514.792 388.226 514.86C388.186 514.932 388.163 514.955 388.165 514.954L388.842 515.69C389.042 515.505 389.182 515.212 389.292 514.92C389.409 514.607 389.52 514.21 389.628 513.743C389.843 512.806 390.054 511.54 390.26 510.001C390.672 506.92 391.071 502.701 391.453 497.736C392.217 487.805 392.913 474.864 393.502 462.027C394.091 449.188 394.572 436.449 394.907 426.919C395.074 422.154 395.204 418.192 395.293 415.42C395.337 414.035 395.371 412.947 395.394 412.205C395.405 411.835 395.414 411.55 395.42 411.359C395.423 411.263 395.425 411.191 395.426 411.142C395.427 411.118 395.428 411.099 395.428 411.087C395.428 411.081 395.428 411.076 395.428 411.073C395.428 411.072 395.428 411.07 395.428 411.07C395.428 411.069 395.428 411.069 394.929 411.054Z" fill="#202020"/>
<path d="M500.776 414.789C504.315 411.754 443.06 365.18 396.478 408.871C396.478 408.871 497.236 417.823 500.776 414.789Z" fill="#EE66BB"/>
<circle cx="445.303" cy="465.588" r="75" transform="rotate(-41.613 445.303 465.588)" stroke="#202020" stroke-width="4"/>
<line x1="395.229" y1="412.198" x2="389.836" y2="514.831" stroke="#202020" stroke-width="4" stroke-linecap="round"/>
<line x1="395.368" y1="409.629" x2="501.49" y2="415.91" stroke="#202020" stroke-width="4" stroke-linecap="round"/>
<rect x="434.553" y="454.992" width="16.8019" height="15.0615" transform="rotate(-41.613 434.553 454.992)" fill="#41FF8D"/>
<line x1="389.977" y1="514.732" x2="500.629" y2="416.445" stroke="#202020" stroke-width="4" stroke-linecap="round"/>
<line x1="396.16" y1="410.263" x2="443.975" y2="464.093" stroke="#202020" stroke-width="4" stroke-linecap="round"/>
<path d="M435.342 454.374L446.556 444.412" stroke="#202020" stroke-width="4" stroke-linecap="round"/>
<line x1="446.556" y1="444.412" x2="455.854" y2="454.879" stroke="#202020" stroke-width="4" stroke-linecap="round"/>
</g>
<g filter="url(#filter4_d_1309_582)">
<path d="M520.149 356.06L479.11 296.565L464.341 334.102L520.149 356.06Z" fill="#00B9FB"/>
<path d="M458.605 267.098L402.774 245.13L444.357 305.36L458.605 267.098Z" fill="#00B9FB"/>
<path d="M444.357 305.36L464.287 334.228L479.02 296.785L458.605 267.098L444.357 305.36Z" fill="#00B9FB"/>
<path d="M497.297 250.333L476.802 220.85L458.605 267.098L479.02 296.785L497.297 250.333Z" fill="#EE66BB"/>
<path d="M437.98 162.547L497.582 251.635L551.428 272.822L491.228 183.498L437.98 162.547Z" fill="#FEDF46" stroke="#202020"/>
<path d="M553.048 272.447L497.041 250.411L478.521 297.48L519.234 355.471L553.048 272.447Z" fill="#EE66BB"/>
<path d="M402.646 245.408L458.479 267.377L476.787 220.849L435.599 161.658L402.646 245.408Z" fill="#41FF8D"/>
<path d="M435.599 161.658L436.331 159.797C435.303 159.392 434.142 159.898 433.738 160.926L435.599 161.658ZM491.432 183.626L493.074 182.484C492.848 182.16 492.532 181.91 492.165 181.765L491.432 183.626ZM458.479 267.377L457.747 269.238C458.775 269.642 459.936 269.137 460.341 268.109L458.479 267.377ZM402.646 245.408L400.785 244.676C400.54 245.298 400.622 246.002 401.004 246.551L402.646 245.408ZM553.214 272.413L555.075 273.145C555.32 272.523 555.238 271.819 554.856 271.27L553.214 272.413ZM520.261 356.163L519.529 358.024C520.557 358.429 521.718 357.923 522.122 356.895L520.261 356.163ZM464.428 334.195L462.786 335.337C463.012 335.661 463.328 335.911 463.695 336.056L464.428 334.195ZM434.866 163.519L490.7 185.488L492.165 181.765L436.331 159.797L434.866 163.519ZM459.212 265.516L403.378 243.547L401.914 247.269L457.747 269.238L459.212 265.516ZM404.507 246.141L437.46 162.39L433.738 160.926L400.785 244.676L404.507 246.141ZM496.648 252.305L552.482 274.274L553.946 270.552L498.113 248.583L496.648 252.305ZM551.353 271.68L518.4 355.431L522.122 356.895L555.075 273.145L551.353 271.68ZM520.994 354.302L465.16 332.333L463.695 336.056L519.529 358.024L520.994 354.302ZM466.289 334.927L499.242 251.177L495.519 249.712L462.567 333.462L466.289 334.927ZM466.069 333.052L404.288 244.266L401.004 246.551L462.786 335.337L466.069 333.052ZM460.341 268.109L478.648 221.581L474.925 220.117L456.618 266.645L460.341 268.109ZM478.428 219.706L437.24 160.516L433.957 162.8L475.145 221.991L478.428 219.706ZM475.145 221.991L495.739 251.587L499.022 249.302L478.428 219.706L475.145 221.991ZM489.791 184.769L520.681 229.162L523.965 226.877L493.074 182.484L489.791 184.769ZM520.681 229.162L551.572 273.555L554.856 271.27L523.965 226.877L520.681 229.162Z" fill="#202020"/>
<path d="M460.121 266.234C459.49 265.328 458.244 265.104 457.337 265.735C456.43 266.366 456.207 267.612 456.838 268.519L460.121 266.234ZM518.62 357.305C519.251 358.212 520.497 358.436 521.404 357.805C522.31 357.174 522.534 355.927 521.903 355.021L518.62 357.305ZM463.359 277.891C463.99 278.798 465.237 279.021 466.143 278.39C467.05 277.759 467.273 276.513 466.643 275.606L463.359 277.891ZM474.645 287.107C474.014 286.2 472.768 285.976 471.861 286.607C470.954 287.238 470.731 288.485 471.362 289.391L474.645 287.107ZM483.953 307.486C484.584 308.393 485.83 308.617 486.737 307.986C487.644 307.355 487.867 306.108 487.236 305.202L483.953 307.486ZM495.131 316.547C494.5 315.64 493.253 315.416 492.347 316.047C491.44 316.678 491.217 317.925 491.847 318.831L495.131 316.547ZM515.382 345.649C514.751 344.742 513.504 344.519 512.598 345.15C511.691 345.78 511.467 347.027 512.098 347.934L515.382 345.649ZM504.204 336.589C504.835 337.495 506.081 337.719 506.988 337.088C507.895 336.457 508.118 335.211 507.487 334.304L504.204 336.589ZM456.838 268.519L463.359 277.891L466.643 275.606L460.121 266.234L456.838 268.519ZM471.362 289.391L483.953 307.486L487.236 305.202L474.645 287.107L471.362 289.391ZM512.098 347.934L518.62 357.305L521.903 355.021L515.382 345.649L512.098 347.934ZM491.847 318.831L504.204 336.589L507.487 334.304L495.131 316.547L491.847 318.831Z" fill="#202020"/>
</g>
<path d="M63.1606 740.889C94.0403 768.318 141.309 765.52 168.738 734.64C196.166 703.761 193.369 656.492 162.489 629.064C131.609 601.635 84.341 604.432 56.9122 635.312C29.4834 666.192 32.2809 713.46 63.1606 740.889Z" fill="#00B9FB" stroke="#202020" stroke-width="4"/>
<line x1="159.778" y1="629.113" x2="59.6101" y2="635.041" stroke="#202020" stroke-width="4" stroke-linecap="round"/>
<path d="M57.5472 635.008L163.316 630.004L169.497 734.447L63.5824 742.285L57.5472 635.008Z" fill="#EE66BB" stroke="#202020"/>
<line x1="162.364" y1="628.96" x2="168.625" y2="734.758" stroke="#202020" stroke-width="4" stroke-linecap="round"/>
<line x1="63.2029" y1="739.585" x2="57.108" y2="636.602" stroke="#202020" stroke-width="4" stroke-linecap="round"/>
<line x1="2" y1="-2" x2="107.983" y2="-2" transform="matrix(0.998253 -0.0590801 -0.0590801 -0.998253 60.9282 738.898)" stroke="#202020" stroke-width="4" stroke-linecap="round"/>
<path d="M160.906 727.684L124.007 694.908" stroke="#202020" stroke-width="3.5" stroke-linecap="round"/>
<path d="M113.572 699.642L115.404 730.609" stroke="#202020" stroke-width="3.5" stroke-linecap="round"/>
<path d="M118.784 690.269C115.861 693.561 110.823 693.859 107.532 690.935C104.241 688.012 103.942 682.974 106.866 679.683C109.789 676.392 114.827 676.094 118.118 679.017C121.409 681.94 121.707 686.978 118.784 690.269Z" fill="#41FF8D" stroke="#202020" stroke-width="4"/>
<mask id="path-56-inside-1_1309_582" fill="white">
<path d="M79.4661 777.421L115.298 849.418L55.7761 916.428L19.9442 844.432L79.4661 777.421Z"/>
<path d="M79.4661 777.421L115.298 849.418L190.866 876.372L155.158 804.543L79.4661 777.421Z"/>
<path d="M115.298 849.418L55.7761 916.428L131.344 943.382L190.866 876.372L115.298 849.418Z"/>
</mask>
<path d="M79.4661 777.421L115.298 849.418L55.7761 916.428L19.9442 844.432L79.4661 777.421Z" fill="#41FF8D"/>
<path d="M79.4661 777.421L115.298 849.418L190.866 876.372L155.158 804.543L79.4661 777.421Z" fill="#00B9FB"/>
<path d="M115.298 849.418L55.7761 916.428L131.344 943.382L190.866 876.372L115.298 849.418Z" fill="#FF5566"/>
<path d="M77.6756 778.312L113.508 850.309L117.089 848.527L81.2566 776.53L77.6756 778.312ZM113.803 848.09L54.2808 915.1L57.2714 917.757L116.793 850.746L113.803 848.09ZM191.538 874.488L115.97 847.534L114.626 851.301L190.194 878.255L191.538 874.488ZM79.4661 777.421L80.8154 773.656C79.278 773.105 77.5601 773.544 76.4755 774.765L79.4661 777.421ZM55.7761 916.428L52.1951 918.211C52.6561 919.137 53.4579 919.848 54.4323 920.196L55.7761 916.428ZM19.9442 844.432L16.9536 841.776C15.8696 842.996 15.6359 844.753 16.3632 846.214L19.9442 844.432ZM155.158 804.543L158.74 802.762C158.28 801.837 157.48 801.126 156.507 800.777L155.158 804.543ZM190.866 876.372L193.856 879.028C194.94 877.808 195.174 876.052 194.447 874.591L190.866 876.372ZM131.344 943.382L130 947.15C131.536 947.698 133.251 947.258 134.334 946.039L131.344 943.382ZM59.3571 914.646L23.5253 842.65L16.3632 846.214L52.1951 918.211L59.3571 914.646ZM22.9348 847.088L82.4567 780.078L76.4755 774.765L16.9536 841.776L22.9348 847.088ZM78.1169 781.187L153.809 808.309L156.507 800.777L80.8154 773.656L78.1169 781.187ZM151.576 806.324L187.284 878.152L194.447 874.591L158.74 802.762L151.576 806.324ZM187.875 873.715L128.353 940.726L134.334 946.039L193.856 879.028L187.875 873.715ZM132.688 939.615L57.12 912.661L54.4323 920.196L130 947.15L132.688 939.615Z" fill="#202020" mask="url(#path-56-inside-1_1309_582)"/>
<defs>
<filter id="filter0_d_1309_582" x="0" y="0" width="237.785" height="236.709" filterUnits="userSpaceOnUse" color-interpolation-filters="sRGB">
<feFlood flood-opacity="0" result="BackgroundImageFix"/>
<feColorMatrix in="SourceAlpha" type="matrix" values="0 0 0 0 0 0 0 0 0 0 0 0 0 0 0 0 0 0 127 0" result="hardAlpha"/>
<feOffset dx="30" dy="30"/>
<feComposite in2="hardAlpha" operator="out"/>
<feColorMatrix type="matrix" values="0 0 0 0 0 0 0 0 0 0 0 0 0 0 0 0 0 0 0.25 0"/>
<feBlend mode="normal" in2="BackgroundImageFix" result="effect1_dropShadow_1309_582"/>
<feBlend mode="normal" in="SourceGraphic" in2="effect1_dropShadow_1309_582" result="shape"/>
</filter>
<filter id="filter1_d_1309_582" x="5.56641" y="244.963" width="217.948" height="214.579" filterUnits="userSpaceOnUse" color-interpolation-filters="sRGB">
<feFlood flood-opacity="0" result="BackgroundImageFix"/>
<feColorMatrix in="SourceAlpha" type="matrix" values="0 0 0 0 0 0 0 0 0 0 0 0 0 0 0 0 0 0 127 0" result="hardAlpha"/>
<feOffset dx="30" dy="30"/>
<feComposite in2="hardAlpha" operator="out"/>
<feColorMatrix type="matrix" values="0 0 0 0 0 0 0 0 0 0 0 0 0 0 0 0 0 0 0.25 0"/>
<feBlend mode="normal" in2="BackgroundImageFix" result="effect1_dropShadow_1309_582"/>
<feBlend mode="normal" in="SourceGraphic" in2="effect1_dropShadow_1309_582" result="shape"/>
</filter>
<filter id="filter2_d_1309_582" x="191" y="125" width="211.436" height="211.827" filterUnits="userSpaceOnUse" color-interpolation-filters="sRGB">
<feFlood flood-opacity="0" result="BackgroundImageFix"/>
<feColorMatrix in="SourceAlpha" type="matrix" values="0 0 0 0 0 0 0 0 0 0 0 0 0 0 0 0 0 0 127 0" result="hardAlpha"/>
<feOffset dx="30" dy="30"/>
<feComposite in2="hardAlpha" operator="out"/>
<feColorMatrix type="matrix" values="0 0 0 0 0 0 0 0 0 0 0 0 0 0 0 0 0 0 0.25 0"/>
<feBlend mode="normal" in2="BackgroundImageFix" result="effect1_dropShadow_1309_582"/>
<feBlend mode="normal" in="SourceGraphic" in2="effect1_dropShadow_1309_582" result="shape"/>
</filter>
<filter id="filter3_d_1309_582" x="337" y="358" width="245.333" height="245.249" filterUnits="userSpaceOnUse" color-interpolation-filters="sRGB">
<feFlood flood-opacity="0" result="BackgroundImageFix"/>
<feColorMatrix in="SourceAlpha" type="matrix" values="0 0 0 0 0 0 0 0 0 0 0 0 0 0 0 0 0 0 127 0" result="hardAlpha"/>
<feOffset dx="30" dy="30"/>
<feComposite in2="hardAlpha" operator="out"/>
<feColorMatrix type="matrix" values="0 0 0 0 0 0 0 0 0 0 0 0 0 0 0 0 0 0 0.25 0"/>
<feBlend mode="normal" in2="BackgroundImageFix" result="effect1_dropShadow_1309_582"/>
<feBlend mode="normal" in="SourceGraphic" in2="effect1_dropShadow_1309_582" result="shape"/>
</filter>
<filter id="filter4_d_1309_582" x="380.647" y="159.657" width="224.552" height="228.506" filterUnits="userSpaceOnUse" color-interpolation-filters="sRGB">
<feFlood flood-opacity="0" result="BackgroundImageFix"/>
<feColorMatrix in="SourceAlpha" type="matrix" values="0 0 0 0 0 0 0 0 0 0 0 0 0 0 0 0 0 0 127 0" result="hardAlpha"/>
<feOffset dx="30" dy="30"/>
<feComposite in2="hardAlpha" operator="out"/>
<feColorMatrix type="matrix" values="0 0 0 0 0 0 0 0 0 0 0 0 0 0 0 0 0 0 0.25 0"/>
<feBlend mode="normal" in2="BackgroundImageFix" result="effect1_dropShadow_1309_582"/>
<feBlend mode="normal" in="SourceGraphic" in2="effect1_dropShadow_1309_582" result="shape"/>
</filter>
</defs>
</svg>
