<svg width="25" height="23" viewBox="0 0 25 23" fill="none" xmlns="http://www.w3.org/2000/svg">
<path d="M22.5452 12.5283C20.7432 12.5283 19.9628 13.8995 18.9837 13.8995C16.3806 13.8995 18.75 6.25 18.75 6.25C18.75 6.25 10.2306 9.72222 10.2306 6.1069C10.2306 4.55191 11.8056 4.09952 11.8056 2.37491C11.8056 0.834028 10.5853 0 9.13798 0C7.6339 0 6.25751 0.819922 6.25751 2.44557C6.25751 4.24089 7.63385 5.01836 7.63385 5.99375C7.6339 9.01558 0 7.23776 0 7.23776V21.7012C0 21.7012 7.75325 23.4827 7.75325 20.4572C7.75325 19.4818 6.01714 18.7164 6.01714 16.9211C6.01714 15.2954 7.28668 14.4755 8.77656 14.4755C10.2381 14.4755 11.4583 15.3095 11.4583 16.8504C11.4583 18.575 9.88333 19.0274 9.88333 20.5824C9.88333 23.2214 15.5116 21.6991 17.7492 21.6991C17.7492 21.6991 16.2421 16.4864 18.8702 16.4864C20.431 16.4864 20.8851 18.0555 22.6162 18.0555C24.1628 18.0556 25 16.8398 25 15.3838C25 13.8995 24.177 12.5283 22.5452 12.5283Z" fill="white"/>
</svg>
