<svg width="25" height="22" viewBox="0 0 25 22" fill="none" xmlns="http://www.w3.org/2000/svg">
<path d="M12.5 0C5.5957 0 0 4.5459 0 10.1562C0 12.5781 1.04492 14.7949 2.7832 16.5381C2.17285 18.999 0.131836 21.1914 0.107422 21.2158C0 21.3281 -0.0292969 21.4941 0.0341797 21.6406C0.0976562 21.7871 0.234375 21.875 0.390625 21.875C3.62793 21.875 6.05469 20.3223 7.25586 19.3652C8.85254 19.9658 10.625 20.3125 12.5 20.3125C19.4043 20.3125 25 15.7666 25 10.1562C25 4.5459 19.4043 0 12.5 0ZM6.25 11.7188C5.38574 11.7188 4.6875 11.0205 4.6875 10.1562C4.6875 9.29199 5.38574 8.59375 6.25 8.59375C7.11426 8.59375 7.8125 9.29199 7.8125 10.1562C7.8125 11.0205 7.11426 11.7188 6.25 11.7188ZM12.5 11.7188C11.6357 11.7188 10.9375 11.0205 10.9375 10.1562C10.9375 9.29199 11.6357 8.59375 12.5 8.59375C13.3643 8.59375 14.0625 9.29199 14.0625 10.1562C14.0625 11.0205 13.3643 11.7188 12.5 11.7188ZM18.75 11.7188C17.8857 11.7188 17.1875 11.0205 17.1875 10.1562C17.1875 9.29199 17.8857 8.59375 18.75 8.59375C19.6143 8.59375 20.3125 9.29199 20.3125 10.1562C20.3125 11.0205 19.6143 11.7188 18.75 11.7188Z" fill="white"/>
</svg>
