<svg width="350" height="350" viewBox="0 0 350 350" fill="none" xmlns="http://www.w3.org/2000/svg">
<rect width="350" height="350" fill="#121212"/>
<path d="M167.936 298.464C168.192 298.464 168.32 298.72 168.32 299.232C168.32 299.744 168.192 300 167.936 300C165.291 300 163.2 299.957 161.664 299.872L152.832 299.744L144.64 299.872C143.275 299.957 141.355 300 138.88 300C138.709 300 138.624 299.744 138.624 299.232C138.624 298.72 138.709 298.464 138.88 298.464C141.781 298.464 143.915 298.251 145.28 297.824C146.731 297.312 147.669 296.459 148.096 295.264C148.608 294.069 148.779 292.192 148.608 289.632L146.304 231.392L117.12 299.104C116.949 299.445 116.608 299.616 116.096 299.616C115.669 299.616 115.285 299.445 114.944 299.104L83.456 232.16L82.304 286.048C82.2187 290.571 82.9867 293.771 84.608 295.648C86.2293 297.525 89.088 298.464 93.184 298.464C93.3547 298.464 93.44 298.72 93.44 299.232C93.44 299.744 93.3547 300 93.184 300C90.7947 300 88.96 299.957 87.68 299.872L80.768 299.744L74.112 299.872C72.9173 299.957 71.2107 300 68.992 300C68.8213 300 68.736 299.744 68.736 299.232C68.736 298.72 68.8213 298.464 68.992 298.464C72.576 298.464 75.136 297.525 76.672 295.648C78.2933 293.685 79.1467 290.485 79.232 286.048L80.384 226.656C77.824 223.243 74.3253 221.536 69.888 221.536C69.7173 221.536 69.632 221.28 69.632 220.768C69.632 220.256 69.7173 220 69.888 220L74.624 220.128C75.4773 220.213 76.672 220.256 78.208 220.256C79.744 220.256 81.024 220.213 82.048 220.128C83.1573 220.043 84.0107 220 84.608 220C85.7173 220 86.6133 220.427 87.296 221.28C88.064 222.048 89.1307 223.84 90.496 226.656L119.04 286.816L146.944 223.2C147.883 221.067 149.163 220 150.784 220C151.211 220 151.808 220.043 152.576 220.128C153.429 220.213 154.539 220.256 155.904 220.256L161.92 220.128C162.859 220.043 164.267 220 166.144 220C166.4 220 166.528 220.256 166.528 220.768C166.528 221.28 166.4 221.536 166.144 221.536C161.877 221.536 158.805 222.176 156.928 223.456C155.136 224.651 154.283 226.955 154.368 230.368L156.928 289.632C157.013 292.277 157.312 294.197 157.824 295.392C158.421 296.587 159.445 297.397 160.896 297.824C162.347 298.251 164.693 298.464 167.936 298.464ZM274.936 298.464C275.192 298.464 275.32 298.72 275.32 299.232C275.32 299.744 275.192 300 274.936 300C272.291 300 270.2 299.957 268.664 299.872L259.832 299.744L251.64 299.872C250.275 299.957 248.355 300 245.88 300C245.709 300 245.624 299.744 245.624 299.232C245.624 298.72 245.709 298.464 245.88 298.464C248.781 298.464 250.915 298.251 252.28 297.824C253.731 297.312 254.669 296.459 255.096 295.264C255.608 294.069 255.779 292.192 255.608 289.632L253.304 231.392L224.12 299.104C223.949 299.445 223.608 299.616 223.096 299.616C222.669 299.616 222.285 299.445 221.944 299.104L190.456 232.16L189.304 286.048C189.219 290.571 189.987 293.771 191.608 295.648C193.229 297.525 196.088 298.464 200.184 298.464C200.355 298.464 200.44 298.72 200.44 299.232C200.44 299.744 200.355 300 200.184 300C197.795 300 195.96 299.957 194.68 299.872L187.768 299.744L181.112 299.872C179.917 299.957 178.211 300 175.992 300C175.821 300 175.736 299.744 175.736 299.232C175.736 298.72 175.821 298.464 175.992 298.464C179.576 298.464 182.136 297.525 183.672 295.648C185.293 293.685 186.147 290.485 186.232 286.048L187.384 226.656C184.824 223.243 181.325 221.536 176.888 221.536C176.717 221.536 176.632 221.28 176.632 220.768C176.632 220.256 176.717 220 176.888 220L181.624 220.128C182.477 220.213 183.672 220.256 185.208 220.256C186.744 220.256 188.024 220.213 189.048 220.128C190.157 220.043 191.011 220 191.608 220C192.717 220 193.613 220.427 194.296 221.28C195.064 222.048 196.131 223.84 197.496 226.656L226.04 286.816L253.944 223.2C254.883 221.067 256.163 220 257.784 220C258.211 220 258.808 220.043 259.576 220.128C260.429 220.213 261.539 220.256 262.904 220.256L268.92 220.128C269.859 220.043 271.267 220 273.144 220C273.4 220 273.528 220.256 273.528 220.768C273.528 221.28 273.4 221.536 273.144 221.536C268.877 221.536 265.805 222.176 263.928 223.456C262.136 224.651 261.283 226.955 261.368 230.368L263.928 289.632C264.013 292.277 264.312 294.197 264.824 295.392C265.421 296.587 266.445 297.397 267.896 297.824C269.347 298.251 271.693 298.464 274.936 298.464Z" fill="#EBEBEB"/>
<path d="M155.864 66.4057L215.819 66.4057L224.601 104.166L193.642 154.584L133.696 154.584L126.672 116.828L155.864 66.4057Z" stroke="white"/>
<path d="M132.84 154.274L126.631 117.328L223.524 104.8L154.619 167.341L132.84 154.274Z" stroke="white"/>
<path d="M195.571 55.1342L215.686 66.0854L220.619 87.1641L220.619 87.1656L223.864 101.229L195.571 55.1342Z" stroke="white"/>
<line x1="127.865" y1="116.77" x2="194.904" y2="55.0231" stroke="white" stroke-linecap="round"/>
<line x1="128.022" y1="116.795" x2="214.548" y2="67.351" stroke="white" stroke-linecap="round"/>
<line x1="128.517" y1="117.289" x2="193.639" y2="154.25" stroke="white" stroke-linecap="round"/>
<line x1="128.512" y1="117.681" x2="154.794" y2="166.74" stroke="white" stroke-linecap="round"/>
</svg>
