<svg width="52" height="55" viewBox="0 0 52 55" fill="none" xmlns="http://www.w3.org/2000/svg">
<path d="M25.94 27.5C34.1273 27.5 40.7629 21.3447 40.7629 13.75C40.7629 6.15527 34.1273 0 25.94 0C17.7527 0 11.1171 6.15527 11.1171 13.75C11.1171 21.3447 17.7527 27.5 25.94 27.5ZM36.316 30.9375H34.3821C31.8112 32.0332 28.9509 32.6562 25.94 32.6562C22.9291 32.6562 20.0803 32.0332 17.4979 30.9375H15.564C6.97137 30.9375 0 37.4043 0 45.375V49.8438C0 52.6904 2.48978 55 5.55857 55H46.3214C49.3902 55 51.88 52.6904 51.88 49.8438V45.375C51.88 37.4043 44.9086 30.9375 36.316 30.9375Z" fill="black"/>
</svg>
