<svg width="25" height="21" viewBox="0 0 25 21" fill="none" xmlns="http://www.w3.org/2000/svg">
<path d="M12.4999 16.1251C9.53702 16.1251 7.13859 13.8317 6.91788 10.9255L2.82023 7.7587C2.28156 8.43448 1.78585 9.14893 1.38585 9.93018C1.29649 10.1069 1.24994 10.3022 1.24994 10.5003C1.24994 10.6984 1.29649 10.8937 1.38585 11.0704C3.50421 15.2036 7.69796 18.0001 12.4999 18.0001C13.5511 18.0001 14.5652 17.8439 15.5425 17.5915L13.5155 16.0231C13.1808 16.0878 12.8408 16.1219 12.4999 16.1251ZM24.7585 18.3946L20.4402 15.0571C21.7519 13.9516 22.8308 12.5963 23.614 11.07C23.7033 10.8933 23.7499 10.698 23.7499 10.4999C23.7499 10.3018 23.7033 10.1066 23.614 9.92979C21.4956 5.79659 17.3019 3.0001 12.4999 3.0001C10.4888 3.00254 8.51031 3.50884 6.74523 4.47276L1.7757 0.631743C1.71089 0.581316 1.63679 0.544153 1.55762 0.522378C1.47844 0.500602 1.39576 0.494641 1.31428 0.504835C1.2328 0.515029 1.15413 0.541177 1.08277 0.581787C1.0114 0.622396 0.948736 0.676671 0.898353 0.741509L0.131556 1.72862C0.0298368 1.85947 -0.015743 2.02537 0.00484145 2.18982C0.0254259 2.35428 0.110489 2.50383 0.241322 2.60557L23.2241 20.3685C23.2889 20.4189 23.363 20.4561 23.4422 20.4778C23.5214 20.4996 23.6041 20.5056 23.6856 20.4954C23.767 20.4852 23.8457 20.459 23.9171 20.4184C23.9884 20.3778 24.0511 20.3235 24.1015 20.2587L24.8687 19.2716C24.9703 19.1407 25.0159 18.9748 24.9952 18.8103C24.9745 18.6458 24.8894 18.4963 24.7585 18.3946ZM17.5819 12.8478L16.0468 11.661C16.1761 11.2874 16.2447 10.8954 16.2499 10.5001C16.2575 9.9213 16.1293 9.34877 15.8755 8.82852C15.6217 8.30826 15.2495 7.85477 14.7886 7.50448C14.3278 7.15419 13.7912 6.91687 13.2221 6.81156C12.6529 6.70626 12.0669 6.73591 11.5112 6.89815C11.7468 7.21733 11.8742 7.60342 11.8749 8.0001C11.8691 8.13211 11.8489 8.26309 11.8148 8.39073L8.93937 6.16846C9.93819 5.33378 11.1982 4.87606 12.4999 4.8751C13.2387 4.87469 13.9704 5.01991 14.653 5.30244C15.3356 5.58498 15.9559 5.9993 16.4783 6.52171C17.0007 7.04412 17.415 7.66438 17.6976 8.34702C17.9801 9.02966 18.1253 9.7613 18.1249 10.5001C18.1249 11.345 17.9183 12.1325 17.5819 12.8481V12.8478Z" fill="black"/>
</svg>
