<svg width="32" height="35" viewBox="0 0 32 35" fill="none" xmlns="http://www.w3.org/2000/svg">
<path d="M15.94 17.5C20.9711 17.5 25.0486 13.583 25.0486 8.75C25.0486 3.91699 20.9711 0 15.94 0C10.9089 0 6.83143 3.91699 6.83143 8.75C6.83143 13.583 10.9089 17.5 15.94 17.5ZM22.316 19.6875H21.1276C19.5478 20.3848 17.7902 20.7812 15.94 20.7812C14.0898 20.7812 12.3393 20.3848 10.7524 19.6875H9.564C4.28387 19.6875 0 23.8027 0 28.875V31.7188C0 33.5303 1.52996 35 3.41571 35H28.4643C30.35 35 31.88 33.5303 31.88 31.7188V28.875C31.88 23.8027 27.5961 19.6875 22.316 19.6875Z" fill="white"/>
</svg>
