<svg width="752" height="1074" viewBox="0 0 752 1074" fill="none" xmlns="http://www.w3.org/2000/svg">
<g filter="url(#filter0_d_1309_645)">
<rect x="594.278" y="277.492" width="13.3544" height="15.1083" transform="rotate(-14.3617 594.278 277.492)" fill="#41FF8D"/>
<path d="M474.38 325.495L516.448 313.76C517.471 313.474 517.962 312.311 517.454 311.379C511.571 300.588 505.434 289.368 495.514 282.113C493.983 280.993 492.823 280.503 492.431 281.164L469.856 319.617C468.034 322.719 470.915 326.462 474.38 325.495Z" fill="#EE66BB"/>
<path d="M552.174 190.973C550.073 189.829 549.482 186.933 550.705 184.876C555.983 175.993 567.853 154.683 571.044 148.943C571.564 148.008 572.422 147.294 573.483 147.154C575.427 146.897 576.731 147.362 576.54 148.765C576.397 149.811 576.086 150.864 576.348 151.886L586.82 192.785C587.083 193.813 586.735 194.72 585.718 195.021C582.344 196.021 574.018 197.487 567.395 196.09C560.801 194.699 556.751 193.466 552.174 190.973Z" fill="#9B5DE5"/>
<path d="M552.174 190.973C550.073 189.829 549.482 186.933 550.705 184.876C555.983 175.993 567.853 154.683 571.044 148.943C571.564 148.008 572.422 147.294 573.483 147.154C575.427 146.897 576.731 147.362 576.54 148.765C576.397 149.811 576.086 150.864 576.348 151.886L586.82 192.785C587.083 193.813 586.735 194.72 585.718 195.021C582.344 196.021 574.018 197.487 567.395 196.09C560.801 194.699 556.751 193.466 552.174 190.973Z" fill="#0CFFFF"/>
<path d="M552.174 190.973C550.073 189.829 549.482 186.933 550.705 184.876C555.983 175.993 567.853 154.683 571.044 148.943C571.564 148.008 572.422 147.294 573.483 147.154C575.427 146.897 576.731 147.362 576.54 148.765C576.397 149.811 576.086 150.864 576.348 151.886L586.82 192.785C587.083 193.813 586.735 194.72 585.718 195.021C582.344 196.021 574.018 197.487 567.395 196.09C560.801 194.699 556.751 193.466 552.174 190.973Z" fill="#9556EB"/>
<mask id="path-3-inside-1_1309_645" fill="white">
<path d="M613.044 286.219L577.489 147.355C576.605 143.903 571.988 143.243 570.172 146.309L466.864 320.727C465.048 323.794 467.845 327.525 471.298 326.641L610.161 291.086C612.301 290.538 613.592 288.359 613.044 286.219Z"/>
</mask>
<path d="M570.172 146.309L566.731 144.27L566.731 144.27L570.172 146.309ZM466.864 320.727L463.422 318.689L463.422 318.689L466.864 320.727ZM573.614 148.347L609.169 287.211L616.919 285.226L581.364 146.363L573.614 148.347ZM609.169 287.211L470.305 322.766L472.29 330.516L611.153 294.961L609.169 287.211ZM566.731 144.27L463.422 318.689L470.305 322.766L573.614 148.347L566.731 144.27ZM470.305 322.766C470.285 322.771 470.274 322.772 470.27 322.773C470.266 322.773 470.268 322.773 470.273 322.773C470.279 322.773 470.286 322.774 470.294 322.776C470.301 322.778 470.308 322.78 470.314 322.782C470.326 322.786 470.329 322.79 470.325 322.787C470.324 322.785 470.321 322.783 470.317 322.779C470.313 322.776 470.309 322.771 470.305 322.766C470.302 322.761 470.298 322.756 470.296 322.751C470.293 322.746 470.292 322.743 470.291 322.741C470.289 322.737 470.291 322.741 470.292 322.753C470.293 322.759 470.293 322.766 470.292 322.774C470.292 322.782 470.291 322.789 470.29 322.795C470.288 322.8 470.288 322.801 470.289 322.798C470.29 322.794 470.295 322.784 470.305 322.766L463.422 318.689C459.79 324.821 465.385 332.284 472.29 330.516L470.305 322.766ZM609.169 287.211L611.153 294.961C615.434 293.865 618.015 289.507 616.919 285.226L609.169 287.211ZM581.364 146.363C579.596 139.458 570.363 138.138 566.731 144.27L573.614 148.347C573.625 148.329 573.632 148.32 573.634 148.317C573.636 148.315 573.636 148.316 573.632 148.319C573.628 148.323 573.622 148.327 573.615 148.332C573.609 148.336 573.602 148.339 573.596 148.342C573.585 148.347 573.581 148.347 573.585 148.346C573.587 148.346 573.591 148.346 573.596 148.346C573.602 148.346 573.608 148.346 573.614 148.347C573.62 148.348 573.626 148.349 573.631 148.351C573.636 148.352 573.64 148.354 573.642 148.355C573.646 148.356 573.642 148.355 573.632 148.347C573.628 148.343 573.622 148.338 573.617 148.332C573.612 148.326 573.608 148.32 573.605 148.316C573.602 148.311 573.602 148.31 573.603 148.313C573.604 148.316 573.609 148.327 573.614 148.347L581.364 146.363Z" fill="#202020" mask="url(#path-3-inside-1_1309_645)"/>
<path d="M548.144 189.049C554.02 192.529 560.523 194.818 567.283 195.785C574.043 196.752 580.927 196.377 587.543 194.684" stroke="#202020" stroke-width="4" stroke-linecap="round" stroke-linejoin="round" stroke-dasharray="15 10"/>
<path d="M492.331 280.505C504.425 287.669 513.179 299.343 516.665 312.96" stroke="#202020" stroke-width="4" stroke-linecap="round" stroke-linejoin="round" stroke-dasharray="15 9"/>
<mask id="path-7-inside-2_1309_645" fill="white">
<path d="M570.172 146.309C571.988 143.243 576.605 143.903 577.489 147.355L613.044 286.219C613.592 288.359 612.301 290.538 610.161 291.086L471.298 326.641C467.845 327.525 465.048 323.794 466.864 320.727L570.172 146.309Z"/>
</mask>
<path d="M570.172 146.309C571.988 143.243 576.605 143.903 577.489 147.355L613.044 286.219C613.592 288.359 612.301 290.538 610.161 291.086L471.298 326.641C467.845 327.525 465.048 323.794 466.864 320.727L570.172 146.309Z" fill="#FEDF46"/>
<path d="M466.864 320.727L463.422 318.689L466.864 320.727ZM570.172 146.309L566.731 144.27L570.172 146.309ZM573.614 148.347L609.169 287.211L616.919 285.226L581.364 146.363L573.614 148.347ZM609.169 287.211L470.305 322.766L472.29 330.516L611.153 294.961L609.169 287.211ZM566.731 144.27L463.422 318.689L470.305 322.766L573.614 148.347L566.731 144.27ZM470.305 322.766C470.285 322.771 470.274 322.772 470.27 322.773C470.266 322.773 470.268 322.773 470.273 322.773C470.279 322.773 470.286 322.774 470.294 322.776C470.301 322.778 470.308 322.78 470.314 322.782C470.326 322.786 470.329 322.79 470.325 322.787C470.324 322.785 470.321 322.783 470.317 322.779C470.313 322.776 470.309 322.771 470.305 322.766C470.302 322.761 470.298 322.756 470.296 322.751C470.293 322.746 470.292 322.743 470.291 322.741C470.289 322.737 470.291 322.741 470.292 322.753C470.293 322.759 470.293 322.766 470.292 322.774C470.292 322.782 470.291 322.789 470.29 322.795C470.288 322.8 470.288 322.801 470.289 322.798C470.29 322.794 470.295 322.784 470.305 322.766L463.422 318.689C459.79 324.821 465.385 332.284 472.29 330.516L470.305 322.766ZM609.169 287.211L609.169 287.211L611.153 294.961C615.434 293.865 618.015 289.507 616.919 285.226L609.169 287.211ZM581.364 146.363C579.596 139.458 570.363 138.138 566.731 144.27L573.614 148.347C573.625 148.329 573.632 148.32 573.634 148.317C573.636 148.315 573.636 148.316 573.632 148.319C573.628 148.323 573.622 148.327 573.615 148.332C573.609 148.336 573.602 148.339 573.596 148.342C573.585 148.347 573.581 148.347 573.585 148.346C573.587 148.346 573.591 148.346 573.596 148.346C573.602 148.346 573.608 148.346 573.614 148.347C573.62 148.348 573.626 148.349 573.631 148.351C573.636 148.352 573.64 148.354 573.642 148.355C573.646 148.356 573.642 148.355 573.632 148.347C573.628 148.343 573.622 148.338 573.617 148.332C573.612 148.326 573.608 148.32 573.605 148.316C573.602 148.311 573.602 148.31 573.603 148.313C573.604 148.316 573.609 148.327 573.614 148.347L581.364 146.363Z" fill="#202020" mask="url(#path-7-inside-2_1309_645)"/>
<path d="M474.38 325.495L516.448 313.76C517.471 313.474 517.962 312.311 517.454 311.379C511.571 300.588 505.434 289.368 495.514 282.113C493.983 280.993 492.823 280.503 492.431 281.164L469.856 319.617C468.034 322.719 470.915 326.462 474.38 325.495Z" fill="#EE66BB"/>
<path d="M552.174 190.973C550.073 189.829 549.482 186.933 550.705 184.876C555.983 175.993 567.853 154.683 571.044 148.943C571.564 148.008 572.422 147.294 573.483 147.154C575.427 146.897 576.731 147.362 576.54 148.765C576.397 149.811 576.086 150.864 576.348 151.886L586.82 192.785C587.083 193.813 586.735 194.72 585.718 195.021C582.344 196.021 574.018 197.487 567.395 196.09C560.801 194.699 556.751 193.466 552.174 190.973Z" fill="#9B5DE5"/>
<path d="M552.174 190.973C550.073 189.829 549.482 186.933 550.705 184.876C555.983 175.993 567.853 154.683 571.044 148.943C571.564 148.008 572.422 147.294 573.483 147.154C575.427 146.897 576.731 147.362 576.54 148.765C576.397 149.811 576.086 150.864 576.348 151.886L586.82 192.785C587.083 193.813 586.735 194.72 585.718 195.021C582.344 196.021 574.018 197.487 567.395 196.09C560.801 194.699 556.751 193.466 552.174 190.973Z" fill="#0CFFFF"/>
<path d="M552.174 190.973C550.073 189.829 549.482 186.933 550.705 184.876C555.983 175.993 567.853 154.683 571.044 148.943C571.564 148.008 572.422 147.294 573.483 147.154C575.427 146.897 576.731 147.362 576.54 148.765C576.397 149.811 576.086 150.864 576.348 151.886L586.82 192.785C587.083 193.813 586.735 194.72 585.718 195.021C582.344 196.021 574.018 197.487 567.395 196.09C560.801 194.699 556.751 193.466 552.174 190.973Z" fill="#9556EB"/>
<rect x="594.319" y="277.594" width="14" height="15" rx="2" transform="rotate(-14.3617 594.319 277.594)" fill="#41FF8D"/>
<path d="M548.144 189.049C554.02 192.529 560.523 194.818 567.283 195.785C574.043 196.752 580.927 196.377 587.543 194.684" stroke="#202020" stroke-width="4" stroke-linecap="round" stroke-linejoin="round" stroke-dasharray="15 10"/>
<path d="M492.331 280.505C504.425 287.669 513.179 299.343 516.665 312.96" stroke="#202020" stroke-width="4" stroke-linecap="round" stroke-linejoin="round" stroke-dasharray="15 9"/>
<rect x="594.319" y="277.594" width="14" height="15" rx="2" transform="rotate(-14.3617 594.319 277.594)" stroke="#202020" stroke-width="4"/>
<mask id="path-14-inside-3_1309_645" fill="white">
<path d="M570.172 146.309C571.988 143.243 576.605 143.903 577.489 147.355L613.044 286.219C613.592 288.359 612.301 290.538 610.161 291.086L471.298 326.641C467.845 327.525 465.048 323.794 466.864 320.727L570.172 146.309Z"/>
</mask>
<path d="M466.864 320.727L463.422 318.689L466.864 320.727ZM570.172 146.309L566.731 144.27L570.172 146.309ZM573.614 148.347L609.169 287.211L616.919 285.226L581.364 146.363L573.614 148.347ZM609.169 287.211L470.305 322.766L472.29 330.516L611.153 294.961L609.169 287.211ZM566.731 144.27L463.422 318.689L470.305 322.766L573.614 148.347L566.731 144.27ZM470.305 322.766C470.285 322.771 470.274 322.772 470.27 322.773C470.266 322.773 470.268 322.773 470.273 322.773C470.279 322.773 470.286 322.774 470.294 322.776C470.301 322.778 470.308 322.78 470.314 322.782C470.326 322.786 470.329 322.79 470.325 322.787C470.324 322.785 470.321 322.783 470.317 322.779C470.313 322.776 470.309 322.771 470.305 322.766C470.302 322.761 470.298 322.756 470.296 322.751C470.293 322.746 470.292 322.743 470.291 322.741C470.289 322.737 470.291 322.741 470.292 322.753C470.293 322.759 470.293 322.766 470.292 322.774C470.292 322.782 470.291 322.789 470.29 322.795C470.288 322.8 470.288 322.801 470.289 322.798C470.29 322.794 470.295 322.784 470.305 322.766L463.422 318.689C459.79 324.821 465.385 332.284 472.29 330.516L470.305 322.766ZM609.169 287.211L609.169 287.211L611.153 294.961C615.434 293.865 618.015 289.507 616.919 285.226L609.169 287.211ZM581.364 146.363C579.596 139.458 570.363 138.138 566.731 144.27L573.614 148.347C573.625 148.329 573.632 148.32 573.634 148.317C573.636 148.315 573.636 148.316 573.632 148.319C573.628 148.323 573.622 148.327 573.615 148.332C573.609 148.336 573.602 148.339 573.596 148.342C573.585 148.347 573.581 148.347 573.585 148.346C573.587 148.346 573.591 148.346 573.596 148.346C573.602 148.346 573.608 148.346 573.614 148.347C573.62 148.348 573.626 148.349 573.631 148.351C573.636 148.352 573.64 148.354 573.642 148.355C573.646 148.356 573.642 148.355 573.632 148.347C573.628 148.343 573.622 148.338 573.617 148.332C573.612 148.326 573.608 148.32 573.605 148.316C573.602 148.311 573.602 148.31 573.603 148.313C573.604 148.316 573.609 148.327 573.614 148.347L581.364 146.363Z" fill="#202020" mask="url(#path-14-inside-3_1309_645)"/>
</g>
<g filter="url(#filter1_d_1309_645)">
<rect x="557.831" y="483.518" width="105.831" height="75.0047" transform="rotate(-41.613 557.831 483.518)" fill="#EE66BB"/>
<rect x="507.76" y="427.652" width="106.166" height="75.2168" transform="rotate(-41.613 507.76 427.652)" fill="#FEDF46"/>
<path d="M607.597 359.377L596.498 369.236L636.318 414.066L685.997 469.995L652.895 399.341L636.344 364.014L619.793 328.687L597.738 348.277L607.597 359.377Z" fill="#9B5DE5"/>
<path d="M607.597 359.377L596.498 369.236L636.318 414.066L685.997 469.995L652.895 399.341L636.344 364.014L619.793 328.687L597.738 348.277L607.597 359.377Z" fill="#0CFFFF"/>
<path d="M607.597 359.377L596.498 369.236L636.318 414.066L685.997 469.995L652.895 399.341L636.344 364.014L619.793 328.687L597.738 348.277L607.597 359.377Z" fill="#9556EB"/>
<path d="M586.639 358.136L596.498 369.236L607.597 359.377L597.738 348.277L586.639 358.136Z" fill="#41FF8D"/>
<path d="M619.793 328.687L621.604 327.839L620.467 325.413L618.465 327.192L619.793 328.687ZM685.997 469.995L687.325 471.491L688.442 470.499L687.808 469.147L685.997 469.995ZM607.597 359.377L608.925 360.872L610.421 359.544L609.092 358.049L607.597 359.377ZM645.224 403.48C644.398 404.213 644.323 405.477 645.057 406.303C645.791 407.129 647.055 407.204 647.881 406.47L645.224 403.48ZM621.007 424.99C620.181 425.724 620.107 426.988 620.84 427.814C621.574 428.64 622.838 428.714 623.664 427.981L621.007 424.99ZM613.429 437.072C614.255 436.338 614.33 435.074 613.596 434.248C612.863 433.422 611.599 433.348 610.773 434.081L613.429 437.072ZM597.223 446.117C596.397 446.85 596.322 448.114 597.056 448.94C597.789 449.766 599.053 449.841 599.879 449.107L597.223 446.117ZM589.068 458.71C589.894 457.977 589.969 456.713 589.235 455.887C588.502 455.061 587.238 454.986 586.412 455.72L589.068 458.71ZM573.15 467.499C572.324 468.233 572.249 469.497 572.983 470.323C573.717 471.149 574.981 471.223 575.807 470.49L573.15 467.499ZM507.646 428.302L506.317 426.807L504.822 428.135L506.15 429.63L507.646 428.302ZM607.004 540.161L605.509 541.489L606.837 542.984L608.332 541.656L607.004 540.161ZM565.284 479.837C566.11 479.103 566.184 477.839 565.451 477.013C564.717 476.187 563.453 476.113 562.627 476.846L565.284 479.837ZM597.993 367.908L588.134 356.808L585.143 359.465L595.002 370.564L597.993 367.908ZM597.826 370.731L608.925 360.872L606.269 357.882L595.169 367.741L597.826 370.731ZM587.967 359.632L599.066 349.773L596.41 346.782L585.31 356.641L587.967 359.632ZM599.066 349.773L621.121 330.183L618.465 327.192L596.41 346.782L599.066 349.773ZM609.092 358.049L599.233 346.949L596.243 349.606L606.102 360.705L609.092 358.049ZM651.084 400.19L684.186 470.844L687.808 469.147L654.706 398.493L651.084 400.19ZM651.567 397.846L645.224 403.48L647.881 406.47L654.223 400.837L651.567 397.846ZM687.492 468.667L637.813 412.738L634.823 415.394L684.502 471.323L687.492 468.667ZM637.813 412.738L597.993 367.908L595.002 370.564L634.823 415.394L637.813 412.738ZM634.99 412.571L621.007 424.99L623.664 427.981L637.646 415.561L634.99 412.571ZM610.773 434.081L597.223 446.117L599.879 449.107L613.429 437.072L610.773 434.081ZM586.412 455.72L573.15 467.499L575.807 470.49L589.068 458.71L586.412 455.72ZM508.974 429.797L587.967 359.632L585.31 356.641L506.317 426.807L508.974 429.797ZM608.332 541.656L687.325 471.491L684.669 468.5L605.676 538.665L608.332 541.656ZM506.15 429.63L555.829 485.559L558.82 482.903L509.141 426.974L506.15 429.63ZM555.829 485.559L605.509 541.489L608.499 538.832L558.82 482.903L555.829 485.559ZM562.627 476.846L555.997 482.736L558.653 485.727L565.284 479.837L562.627 476.846ZM617.982 329.536L634.533 364.863L638.155 363.166L621.604 327.839L617.982 329.536ZM634.533 364.863L651.084 400.19L654.706 398.493L638.155 363.166L634.533 364.863Z" fill="#202020"/>
</g>
<g filter="url(#filter2_d_1309_645)">
<path fill-rule="evenodd" clip-rule="evenodd" d="M409.086 595.554L493.49 500.404L396.462 563.693L409.086 595.554Z" fill="#FEDF46"/>
<path d="M396.462 563.693L493.49 500.404L349.932 449.774L396.462 563.693Z" fill="#00B9FB"/>
<path d="M396.462 563.693L349.932 449.774L367.847 581.939L396.462 563.693Z" fill="#9B5DE5"/>
<path d="M396.462 563.693L349.932 449.774L367.847 581.939L396.462 563.693Z" fill="#0CFFFF"/>
<path d="M396.462 563.693L349.932 449.774L367.847 581.939L396.462 563.693Z" fill="#9556EB"/>
<path d="M409.086 595.554L396.462 563.693L367.847 581.939L409.086 595.554Z" fill="#EE66BB"/>
<path d="M409.408 595.268L349.718 448.235M409.408 595.268L494.743 499.868L349.718 448.235M409.408 595.268L367.138 582.08L349.718 448.235" stroke="#202020" stroke-width="4" stroke-linecap="round" stroke-linejoin="round"/>
<path d="M369.074 581.771L493.218 500.642" stroke="#202020" stroke-width="4" stroke-linecap="round" stroke-dasharray="20 13"/>
</g>
<mask id="path-23-inside-4_1309_645" fill="white">
<path d="M299.466 244.421L335.298 316.418L275.776 383.428L239.944 311.432L299.466 244.421Z"/>
<path d="M299.466 244.421L335.298 316.418L410.866 343.372L375.158 271.543L299.466 244.421Z"/>
<path d="M335.298 316.418L275.776 383.428L351.344 410.382L410.866 343.372L335.298 316.418Z"/>
</mask>
<path d="M299.466 244.421L335.298 316.418L275.776 383.428L239.944 311.432L299.466 244.421Z" fill="#41FF8D"/>
<path d="M299.466 244.421L335.298 316.418L410.866 343.372L375.158 271.543L299.466 244.421Z" fill="#00B9FB"/>
<path d="M335.298 316.418L275.776 383.428L351.344 410.382L410.866 343.372L335.298 316.418Z" fill="#FF5566"/>
<path d="M297.676 245.312L333.508 317.309L337.089 315.527L301.257 243.53L297.676 245.312ZM333.803 315.09L274.281 382.1L277.271 384.757L336.793 317.746L333.803 315.09ZM411.538 341.488L335.97 314.534L334.626 318.301L410.194 345.255L411.538 341.488ZM299.466 244.421L300.815 240.656C299.278 240.105 297.56 240.544 296.476 241.765L299.466 244.421ZM275.776 383.428L272.195 385.211C272.656 386.137 273.458 386.848 274.432 387.196L275.776 383.428ZM239.944 311.432L236.954 308.776C235.87 309.996 235.636 311.753 236.363 313.214L239.944 311.432ZM375.158 271.543L378.74 269.762C378.28 268.837 377.48 268.126 376.507 267.777L375.158 271.543ZM410.866 343.372L413.856 346.028C414.94 344.808 415.174 343.052 414.447 341.591L410.866 343.372ZM351.344 410.382L350 414.15C351.536 414.698 353.251 414.258 354.334 413.039L351.344 410.382ZM279.357 381.646L243.525 309.65L236.363 313.214L272.195 385.211L279.357 381.646ZM242.935 314.088L302.457 247.078L296.476 241.765L236.954 308.776L242.935 314.088ZM298.117 248.187L373.809 275.309L376.507 267.777L300.815 240.656L298.117 248.187ZM371.576 273.324L407.284 345.152L414.447 341.591L378.74 269.762L371.576 273.324ZM407.875 340.715L348.353 407.726L354.334 413.039L413.856 346.028L407.875 340.715ZM352.688 406.615L277.12 379.661L274.432 387.196L350 414.15L352.688 406.615Z" fill="#202020" mask="url(#path-23-inside-4_1309_645)"/>
<g filter="url(#filter3_d_1309_645)">
<path fill-rule="evenodd" clip-rule="evenodd" d="M61.1982 181.143L109.97 236.051L53.765 285.975L61.1982 181.143Z" fill="#EE66BB"/>
<path d="M61.1982 181.143L109.97 236.051L166.032 186.255L61.1982 181.143Z" fill="#9B5DE5"/>
<path d="M61.1982 181.143L109.97 236.051L166.032 186.255L61.1982 181.143Z" fill="#0CFFFF"/>
<path d="M61.1982 181.143L109.97 236.051L166.032 186.255L61.1982 181.143Z" fill="#9556EB"/>
<path d="M166.032 186.255L109.97 236.051L159.383 291.68L166.032 186.255Z" fill="#FEDF46"/>
<path d="M109.97 236.051L53.765 285.975L159.383 291.68L109.97 236.051Z" fill="#41FF8D"/>
<path d="M54.0813 283.214L60.0278 182.738L69.3771 193.263C70.1106 194.089 71.3747 194.164 72.2005 193.43C73.0264 192.697 73.1012 191.433 72.3676 190.607L63.0184 180.081L163.494 186.028L152.816 195.513C151.99 196.246 151.915 197.51 152.649 198.336C153.382 199.162 154.646 199.237 155.472 198.503L166.151 189.018L160.204 289.494L151.053 279.191C150.319 278.366 149.055 278.291 148.229 279.024C147.403 279.758 147.329 281.022 148.062 281.848L157.214 292.151L56.7376 286.204L67.416 276.719C68.2419 275.986 68.3167 274.721 67.5831 273.896C66.8496 273.07 65.5855 272.995 64.7597 273.729L54.0813 283.214ZM76.0309 263.717C75.205 264.45 75.1302 265.715 75.8637 266.54C76.5973 267.366 77.8614 267.441 78.6872 266.708L105.456 242.93C106.282 242.196 106.357 240.932 105.623 240.106C104.89 239.281 103.626 239.206 102.8 239.939L76.0309 263.717ZM114.423 229.615C113.598 230.348 113.523 231.613 114.256 232.438C114.99 233.264 116.254 233.339 117.08 232.605L144.377 208.359C145.203 207.625 145.278 206.361 144.544 205.535C143.811 204.709 142.547 204.634 141.721 205.368L114.423 229.615ZM82.8485 202.406C82.115 201.58 80.8509 201.506 80.0251 202.239C79.1992 202.973 79.1244 204.237 79.858 205.063L103.166 231.303C103.9 232.129 105.164 232.204 105.99 231.471C106.816 230.737 106.89 229.473 106.157 228.647L82.8485 202.406ZM117.107 240.975C116.373 240.149 115.109 240.074 114.284 240.808C113.458 241.541 113.383 242.806 114.116 243.631L137.268 269.696C138.002 270.522 139.266 270.597 140.092 269.863C140.918 269.13 140.992 267.865 140.259 267.04L117.107 240.975Z" stroke="#202020" stroke-width="4" stroke-linecap="round" stroke-linejoin="round"/>
</g>
<g filter="url(#filter4_d_1309_645)">
<path d="M214.501 530.193C187.317 560.797 140.083 563.226 109.001 535.617C77.919 508.009 74.759 460.818 101.943 430.214C129.127 399.61 176.361 397.181 207.443 424.79C238.525 452.398 241.685 499.589 214.501 530.193Z" fill="#00B9FB"/>
<path d="M108.706 535.654C64.8868 495.66 86.7053 447.759 103.092 428.808L215.843 528.958C196.545 550.684 152.524 575.648 108.706 535.654Z" fill="#FF5566"/>
<path d="M103.092 428.808L103.424 428.434L103.045 428.097L102.714 428.481L103.092 428.808ZM108.706 535.654L108.369 536.023L108.706 535.654ZM215.843 528.958L216.217 529.29L216.549 528.916L216.175 528.584L215.843 528.958ZM102.714 428.481C94.4687 438.016 84.8629 454.822 82.8245 474.288C80.783 493.783 86.3374 515.915 108.369 536.023L109.043 535.285C87.2551 515.399 81.8093 493.583 83.819 474.392C85.8318 455.171 95.3285 438.55 103.47 429.135L102.714 428.481ZM108.369 536.023C130.394 556.126 152.517 559.932 171.572 555.941C190.597 551.956 206.516 540.212 216.217 529.29L215.469 528.626C205.872 539.431 190.131 551.032 171.367 554.962C152.633 558.886 130.836 555.176 109.043 535.285L108.369 536.023ZM215.469 528.626C212.835 531.592 208.922 533.205 204.049 533.605C199.173 534.005 193.373 533.184 187.034 531.318C174.358 527.585 159.626 519.7 146.021 509.245C132.418 498.79 119.973 485.791 111.848 471.854C103.722 457.916 99.9429 443.086 103.576 428.932L102.608 428.683C98.8867 443.179 102.779 458.283 110.984 472.358C119.19 486.434 131.734 499.526 145.412 510.038C159.089 520.548 173.93 528.502 186.752 532.277C193.162 534.164 199.091 535.015 204.131 534.602C209.173 534.188 213.361 532.505 216.217 529.29L215.469 528.626ZM102.76 429.181L215.511 529.332L216.175 528.584L103.424 428.434L102.76 429.181Z" fill="#202020"/>
<ellipse cx="158.888" cy="480.795" rx="75.7603" ry="30.0483" transform="rotate(41.613 158.888 480.795)" fill="#41FF8D"/>
<circle cx="158.409" cy="480.37" r="75.1175" transform="rotate(41.613 158.409 480.37)" stroke="#202020" stroke-width="4"/>
<path d="M214.573 530.257C203.552 542.664 169.473 530.387 138.454 502.835C107.436 475.283 91.2248 442.89 102.246 430.482" stroke="#202020" stroke-width="3.5"/>
<path d="M122.063 426.27C126.71 427.082 131.854 428.671 137.312 430.973M148.961 436.711C153.179 439.073 157.498 441.787 161.846 444.828M172.649 453.026C174.562 454.594 176.469 456.221 178.364 457.904C180.26 459.588 182.1 461.29 183.882 463.004M193.297 472.765C196.83 476.724 200.035 480.692 202.878 484.603M210.211 495.954C212.89 500.724 214.926 505.292 216.247 509.52" stroke="#202020" stroke-width="3.5" stroke-linecap="round" stroke-linejoin="round"/>
<path d="M208.297 424.206C220.704 435.227 208.427 469.306 180.875 500.324C153.323 531.343 120.93 547.554 108.522 536.533" stroke="#202020" stroke-width="3.5"/>
<path d="M104.31 516.715C105.121 512.069 106.711 506.925 109.012 501.467M114.751 489.818C117.113 485.599 119.827 481.281 122.868 476.933M131.066 466.129C132.634 464.217 134.26 462.31 135.944 460.415C137.628 458.519 139.33 456.679 141.044 454.897M150.805 445.482C154.764 441.949 158.732 438.744 162.642 435.901M173.994 428.568C178.764 425.888 183.332 423.853 187.56 422.532" stroke="#202020" stroke-width="3.5" stroke-linecap="round" stroke-linejoin="round"/>
</g>
<g filter="url(#filter5_d_1309_645)">
<mask id="path-36-inside-5_1309_645" fill="white">
<path d="M303.127 101.051L382.691 89.3531L427.901 166.744L348.336 178.442L303.127 101.051Z"/>
<path d="M303.127 101.051L382.691 89.3531L431.783 25.8947L352.416 37.5266L303.127 101.051Z"/>
<path d="M382.691 89.3531L427.901 166.744L476.992 103.286L431.783 25.8947L382.691 89.3531Z"/>
</mask>
<path d="M303.127 101.051L382.691 89.3531L427.901 166.744L348.336 178.442L303.127 101.051Z" fill="#41FF8D"/>
<path d="M303.127 101.051L382.691 89.3531L431.783 25.8947L352.416 37.5266L303.127 101.051Z" fill="#00B9FB"/>
<path d="M382.691 89.3531L427.901 166.744L476.992 103.286L431.783 25.8947L382.691 89.3531Z" fill="#FF5566"/>
<path d="M303.418 103.03L382.982 91.3318L382.401 87.3743L302.836 99.0722L303.418 103.03ZM380.965 90.3619L426.174 167.753L429.628 165.736L384.418 88.3443L380.965 90.3619ZM430.201 24.6709L381.11 88.1293L384.273 90.5768L433.365 27.1185L430.201 24.6709ZM303.127 101.051L299.966 98.5988C298.965 99.8891 298.849 101.658 299.673 103.069L303.127 101.051ZM427.901 166.744L428.482 170.702C429.506 170.551 430.431 170.01 431.064 169.192L427.901 166.744ZM348.336 178.442L344.882 180.46C345.705 181.869 347.303 182.637 348.918 182.4L348.336 178.442ZM352.416 37.5266L351.836 33.5689C350.814 33.7187 349.89 34.2583 349.256 35.0745L352.416 37.5266ZM431.783 25.8947L435.237 23.8771C434.414 22.4681 432.818 21.7004 431.203 21.937L431.783 25.8947ZM476.992 103.286L480.156 105.734C481.154 104.444 481.269 102.677 480.446 101.268L476.992 103.286ZM427.319 162.787L347.754 174.485L348.918 182.4L428.482 170.702L427.319 162.787ZM351.79 176.425L306.581 99.0333L299.673 103.069L344.882 180.46L351.79 176.425ZM306.287 103.503L355.577 39.9787L349.256 35.0745L299.966 98.5988L306.287 103.503ZM352.997 41.4843L432.363 29.8524L431.203 21.937L351.836 33.5689L352.997 41.4843ZM428.329 27.9123L473.539 105.304L480.446 101.268L435.237 23.8771L428.329 27.9123ZM473.829 100.839L424.737 164.297L431.064 169.192L480.156 105.734L473.829 100.839Z" fill="#202020" mask="url(#path-36-inside-5_1309_645)"/>
</g>
<g filter="url(#filter6_d_1309_645)">
<rect x="555.43" y="771.886" width="105.831" height="75.0047" transform="rotate(14.3617 555.43 771.886)" fill="#EE66BB"/>
<rect x="573.713" y="699.128" width="106.166" height="75.2168" transform="rotate(14.3617 573.713 699.128)" fill="#FEDF46"/>
<path d="M686.164 743.668L671.782 739.986L656.909 798.073L638.354 870.543L678.388 803.573L698.406 770.088L718.423 736.603L689.846 729.286L686.164 743.668Z" fill="#9B5DE5"/>
<path d="M686.164 743.668L671.782 739.986L656.909 798.073L638.354 870.543L678.388 803.573L698.406 770.088L718.423 736.603L689.846 729.286L686.164 743.668Z" fill="#0CFFFF"/>
<path d="M686.164 743.668L671.782 739.986L656.909 798.073L638.354 870.543L678.388 803.573L698.406 770.088L718.423 736.603L689.846 729.286L686.164 743.668Z" fill="#9556EB"/>
<path d="M675.464 725.604L671.782 739.986L686.164 743.668L689.846 729.286L675.464 725.604Z" fill="#41FF8D"/>
<path d="M718.423 736.603L720.14 737.629L721.514 735.33L718.919 734.666L718.423 736.603ZM638.354 870.543L637.858 872.48L639.304 872.85L640.07 871.569L638.354 870.543ZM686.164 743.668L685.668 745.605L687.605 746.102L688.101 744.164L686.164 743.668ZM670.666 799.531C669.596 799.257 668.507 799.902 668.233 800.973C667.959 802.043 668.604 803.132 669.674 803.406L670.666 799.531ZM639.288 791.497C638.218 791.223 637.128 791.868 636.854 792.938C636.58 794.008 637.226 795.098 638.296 795.372L639.288 791.497ZM625.034 791.976C626.104 792.25 627.194 791.605 627.468 790.535C627.742 789.465 627.097 788.375 626.027 788.101L625.034 791.976ZM608.47 783.606C607.399 783.332 606.31 783.977 606.036 785.047C605.762 786.118 606.407 787.207 607.477 787.481L608.47 783.606ZM593.469 783.894C594.539 784.168 595.629 783.523 595.903 782.453C596.177 781.383 595.531 780.293 594.461 780.019L593.469 783.894ZM577.278 775.62C576.208 775.346 575.118 775.991 574.844 777.061C574.57 778.131 575.216 779.221 576.286 779.495L577.278 775.62ZM573.111 699.397L573.607 697.459L571.669 696.963L571.173 698.901L573.111 699.397ZM536 844.336L534.062 843.84L533.566 845.777L535.504 846.273L536 844.336ZM562.651 776.004C563.721 776.278 564.811 775.632 565.085 774.562C565.358 773.492 564.713 772.403 563.643 772.129L562.651 776.004ZM673.719 740.482L677.402 726.1L673.527 725.108L669.844 739.489L673.719 740.482ZM671.286 741.923L685.668 745.605L686.66 741.73L672.278 738.048L671.286 741.923ZM674.968 727.541L689.35 731.224L690.342 727.349L675.96 723.666L674.968 727.541ZM689.35 731.224L717.927 738.541L718.919 734.666L690.342 727.349L689.35 731.224ZM688.101 744.164L691.784 729.782L687.909 728.79L684.226 743.172L688.101 744.164ZM676.672 802.547L636.637 869.516L640.07 871.569L680.105 804.599L676.672 802.547ZM678.884 801.635L670.666 799.531L669.674 803.406L677.892 805.51L678.884 801.635ZM640.291 871.039L658.846 798.569L654.971 797.577L636.416 870.047L640.291 871.039ZM658.846 798.569L673.719 740.482L669.844 739.489L654.971 797.577L658.846 798.569ZM657.405 796.136L639.288 791.497L638.296 795.372L656.413 800.011L657.405 796.136ZM626.027 788.101L608.47 783.606L607.477 787.481L625.034 791.976L626.027 788.101ZM594.461 780.019L577.278 775.62L576.286 779.495L593.469 783.894L594.461 780.019ZM572.614 701.334L674.968 727.541L675.96 723.666L573.607 697.459L572.614 701.334ZM535.504 846.273L637.858 872.48L638.85 868.605L536.496 842.398L535.504 846.273ZM571.173 698.901L552.618 771.37L556.493 772.362L575.048 699.893L571.173 698.901ZM552.618 771.37L534.062 843.84L537.937 844.832L556.493 772.362L552.618 771.37ZM563.643 772.129L555.051 769.929L554.059 773.804L562.651 776.004L563.643 772.129ZM716.706 735.577L696.689 769.062L700.122 771.114L720.14 737.629L716.706 735.577ZM696.689 769.062L676.672 802.547L680.105 804.599L700.122 771.114L696.689 769.062Z" fill="#202020"/>
</g>
<g filter="url(#filter7_d_1309_645)">
<path fill-rule="evenodd" clip-rule="evenodd" d="M393.086 806.554L477.49 711.404L380.462 774.693L393.086 806.554Z" fill="#FEDF46"/>
<path d="M380.462 774.693L477.49 711.404L333.932 660.774L380.462 774.693Z" fill="#00B9FB"/>
<path d="M380.462 774.693L333.932 660.774L351.847 792.939L380.462 774.693Z" fill="#9B5DE5"/>
<path d="M380.462 774.693L333.932 660.774L351.847 792.939L380.462 774.693Z" fill="#0CFFFF"/>
<path d="M380.462 774.693L333.932 660.774L351.847 792.939L380.462 774.693Z" fill="#9556EB"/>
<path d="M393.086 806.554L380.462 774.693L351.847 792.939L393.086 806.554Z" fill="#EE66BB"/>
<path d="M393.408 806.268L333.718 659.235M393.408 806.268L478.743 710.868L333.718 659.235M393.408 806.268L351.138 793.08L333.718 659.235" stroke="#202020" stroke-width="4" stroke-linecap="round" stroke-linejoin="round"/>
<path d="M353.074 792.771L477.218 711.642" stroke="#202020" stroke-width="4" stroke-linecap="round" stroke-dasharray="20 13"/>
</g>
<g filter="url(#filter8_d_1309_645)">
<path d="M576.501 1016.19C549.317 1046.8 502.083 1049.23 471.001 1021.62C439.919 994.009 436.759 946.818 463.943 916.214C491.127 885.609 538.361 883.181 569.443 910.79C600.525 938.398 603.685 985.589 576.501 1016.19Z" fill="#00B9FB"/>
<path d="M470.706 1021.65C426.887 981.66 448.705 933.759 465.092 914.808L577.843 1014.96C558.545 1036.68 514.524 1061.65 470.706 1021.65Z" fill="#FF5566"/>
<path d="M465.092 914.808L465.424 914.434L465.045 914.097L464.714 914.481L465.092 914.808ZM470.706 1021.65L470.369 1022.02L470.706 1021.65ZM577.843 1014.96L578.217 1015.29L578.549 1014.92L578.175 1014.58L577.843 1014.96ZM464.714 914.481C456.469 924.016 446.863 940.822 444.824 960.288C442.783 979.783 448.337 1001.91 470.369 1022.02L471.043 1021.28C449.255 1001.4 443.809 979.583 445.819 960.392C447.832 941.171 457.329 924.55 465.47 915.135L464.714 914.481ZM470.369 1022.02C492.394 1042.13 514.517 1045.93 533.572 1041.94C552.597 1037.96 568.516 1026.21 578.217 1015.29L577.469 1014.63C567.872 1025.43 552.131 1037.03 533.367 1040.96C514.633 1044.89 492.836 1041.18 471.043 1021.28L470.369 1022.02ZM577.469 1014.63C574.835 1017.59 570.922 1019.21 566.049 1019.6C561.173 1020 555.373 1019.18 549.034 1017.32C536.358 1013.59 521.626 1005.7 508.021 995.245C494.418 984.79 481.973 971.791 473.848 957.854C465.722 943.916 461.943 929.086 465.576 914.932L464.608 914.683C460.887 929.179 464.779 944.283 472.984 958.358C481.19 972.434 493.734 985.526 507.412 996.038C521.089 1006.55 535.93 1014.5 548.752 1018.28C555.162 1020.16 561.091 1021.01 566.131 1020.6C571.173 1020.19 575.361 1018.51 578.217 1015.29L577.469 1014.63ZM464.76 915.181L577.511 1015.33L578.175 1014.58L465.424 914.434L464.76 915.181Z" fill="#202020"/>
<ellipse cx="520.888" cy="966.794" rx="75.7603" ry="30.0483" transform="rotate(41.613 520.888 966.794)" fill="#41FF8D"/>
<circle cx="520.409" cy="966.37" r="75.1175" transform="rotate(41.613 520.409 966.37)" stroke="#202020" stroke-width="4"/>
<path d="M576.573 1016.26C565.552 1028.66 531.473 1016.39 500.454 988.835C469.436 961.283 453.225 928.89 464.246 916.482" stroke="#202020" stroke-width="3.5"/>
<path d="M484.063 912.27C488.71 913.082 493.854 914.671 499.312 916.973M510.961 922.711C515.179 925.073 519.498 927.787 523.846 930.828M534.649 939.026C536.562 940.594 538.469 942.221 540.364 943.904C542.26 945.588 544.1 947.29 545.882 949.004M555.297 958.765C558.83 962.724 562.035 966.692 564.878 970.603M572.211 981.954C574.89 986.724 576.926 991.292 578.247 995.52" stroke="#202020" stroke-width="3.5" stroke-linecap="round" stroke-linejoin="round"/>
<path d="M570.297 910.206C582.704 921.227 570.427 955.306 542.875 986.324C515.323 1017.34 482.93 1033.55 470.522 1022.53" stroke="#202020" stroke-width="3.5"/>
<path d="M466.31 1002.72C467.121 998.069 468.711 992.925 471.012 987.467M476.751 975.818C479.113 971.599 481.827 967.281 484.868 962.933M493.066 952.129C494.634 950.217 496.26 948.31 497.944 946.415C499.628 944.519 501.33 942.679 503.044 940.897M512.805 931.482C516.764 927.949 520.732 924.744 524.642 921.901M535.994 914.568C540.764 911.888 545.332 909.853 549.56 908.532" stroke="#202020" stroke-width="3.5" stroke-linecap="round" stroke-linejoin="round"/>
</g>
<defs>
<filter id="filter0_d_1309_645" x="423" y="138" width="221.036" height="221.036" filterUnits="userSpaceOnUse" color-interpolation-filters="sRGB">
<feFlood flood-opacity="0" result="BackgroundImageFix"/>
<feColorMatrix in="SourceAlpha" type="matrix" values="0 0 0 0 0 0 0 0 0 0 0 0 0 0 0 0 0 0 127 0" result="hardAlpha"/>
<feOffset dx="30" dy="30"/>
<feComposite in2="hardAlpha" operator="out"/>
<feColorMatrix type="matrix" values="0 0 0 0 0 0 0 0 0 0 0 0 0 0 0 0 0 0 0.25 0"/>
<feBlend mode="normal" in2="BackgroundImageFix" result="effect1_dropShadow_1309_645"/>
<feBlend mode="normal" in="SourceGraphic" in2="effect1_dropShadow_1309_645" result="shape"/>
</filter>
<filter id="filter1_d_1309_645" x="504.822" y="325.413" width="244.329" height="247.571" filterUnits="userSpaceOnUse" color-interpolation-filters="sRGB">
<feFlood flood-opacity="0" result="BackgroundImageFix"/>
<feColorMatrix in="SourceAlpha" type="matrix" values="0 0 0 0 0 0 0 0 0 0 0 0 0 0 0 0 0 0 127 0" result="hardAlpha"/>
<feOffset dx="30" dy="30"/>
<feComposite in2="hardAlpha" operator="out"/>
<feColorMatrix type="matrix" values="0 0 0 0 0 0 0 0 0 0 0 0 0 0 0 0 0 0 0.25 0"/>
<feBlend mode="normal" in2="BackgroundImageFix" result="effect1_dropShadow_1309_645"/>
<feBlend mode="normal" in="SourceGraphic" in2="effect1_dropShadow_1309_645" result="shape"/>
</filter>
<filter id="filter2_d_1309_645" x="293" y="399" width="241.475" height="241.439" filterUnits="userSpaceOnUse" color-interpolation-filters="sRGB">
<feFlood flood-opacity="0" result="BackgroundImageFix"/>
<feColorMatrix in="SourceAlpha" type="matrix" values="0 0 0 0 0 0 0 0 0 0 0 0 0 0 0 0 0 0 127 0" result="hardAlpha"/>
<feOffset dx="30" dy="30"/>
<feComposite in2="hardAlpha" operator="out"/>
<feColorMatrix type="matrix" values="0 0 0 0 0 0 0 0 0 0 0 0 0 0 0 0 0 0 0.25 0"/>
<feBlend mode="normal" in2="BackgroundImageFix" result="effect1_dropShadow_1309_645"/>
<feBlend mode="normal" in="SourceGraphic" in2="effect1_dropShadow_1309_645" result="shape"/>
</filter>
<filter id="filter3_d_1309_645" x="0" y="126" width="250.232" height="250.232" filterUnits="userSpaceOnUse" color-interpolation-filters="sRGB">
<feFlood flood-opacity="0" result="BackgroundImageFix"/>
<feColorMatrix in="SourceAlpha" type="matrix" values="0 0 0 0 0 0 0 0 0 0 0 0 0 0 0 0 0 0 127 0" result="hardAlpha"/>
<feOffset dx="30" dy="30"/>
<feComposite in2="hardAlpha" operator="out"/>
<feColorMatrix type="matrix" values="0 0 0 0 0 0 0 0 0 0 0 0 0 0 0 0 0 0 0.25 0"/>
<feBlend mode="normal" in2="BackgroundImageFix" result="effect1_dropShadow_1309_645"/>
<feBlend mode="normal" in="SourceGraphic" in2="effect1_dropShadow_1309_645" result="shape"/>
</filter>
<filter id="filter4_d_1309_645" x="52" y="374" width="243.417" height="243.27" filterUnits="userSpaceOnUse" color-interpolation-filters="sRGB">
<feFlood flood-opacity="0" result="BackgroundImageFix"/>
<feColorMatrix in="SourceAlpha" type="matrix" values="0 0 0 0 0 0 0 0 0 0 0 0 0 0 0 0 0 0 127 0" result="hardAlpha"/>
<feOffset dx="30" dy="30"/>
<feComposite in2="hardAlpha" operator="out"/>
<feColorMatrix type="matrix" values="0 0 0 0 0 0 0 0 0 0 0 0 0 0 0 0 0 0 0.25 0"/>
<feBlend mode="normal" in2="BackgroundImageFix" result="effect1_dropShadow_1309_645"/>
<feBlend mode="normal" in="SourceGraphic" in2="effect1_dropShadow_1309_645" result="shape"/>
</filter>
<filter id="filter5_d_1309_645" x="288" y="0" width="234.141" height="234.374" filterUnits="userSpaceOnUse" color-interpolation-filters="sRGB">
<feFlood flood-opacity="0" result="BackgroundImageFix"/>
<feColorMatrix in="SourceAlpha" type="matrix" values="0 0 0 0 0 0 0 0 0 0 0 0 0 0 0 0 0 0 127 0" result="hardAlpha"/>
<feOffset dx="30" dy="30"/>
<feComposite in2="hardAlpha" operator="out"/>
<feColorMatrix type="matrix" values="0 0 0 0 0 0 0 0 0 0 0 0 0 0 0 0 0 0 0.25 0"/>
<feBlend mode="normal" in2="BackgroundImageFix" result="effect1_dropShadow_1309_645"/>
<feBlend mode="normal" in="SourceGraphic" in2="effect1_dropShadow_1309_645" result="shape"/>
</filter>
<filter id="filter6_d_1309_645" x="533.566" y="696.963" width="217.948" height="214.579" filterUnits="userSpaceOnUse" color-interpolation-filters="sRGB">
<feFlood flood-opacity="0" result="BackgroundImageFix"/>
<feColorMatrix in="SourceAlpha" type="matrix" values="0 0 0 0 0 0 0 0 0 0 0 0 0 0 0 0 0 0 127 0" result="hardAlpha"/>
<feOffset dx="30" dy="30"/>
<feComposite in2="hardAlpha" operator="out"/>
<feColorMatrix type="matrix" values="0 0 0 0 0 0 0 0 0 0 0 0 0 0 0 0 0 0 0.25 0"/>
<feBlend mode="normal" in2="BackgroundImageFix" result="effect1_dropShadow_1309_645"/>
<feBlend mode="normal" in="SourceGraphic" in2="effect1_dropShadow_1309_645" result="shape"/>
</filter>
<filter id="filter7_d_1309_645" x="277" y="610" width="241.475" height="241.439" filterUnits="userSpaceOnUse" color-interpolation-filters="sRGB">
<feFlood flood-opacity="0" result="BackgroundImageFix"/>
<feColorMatrix in="SourceAlpha" type="matrix" values="0 0 0 0 0 0 0 0 0 0 0 0 0 0 0 0 0 0 127 0" result="hardAlpha"/>
<feOffset dx="30" dy="30"/>
<feComposite in2="hardAlpha" operator="out"/>
<feColorMatrix type="matrix" values="0 0 0 0 0 0 0 0 0 0 0 0 0 0 0 0 0 0 0.25 0"/>
<feBlend mode="normal" in2="BackgroundImageFix" result="effect1_dropShadow_1309_645"/>
<feBlend mode="normal" in="SourceGraphic" in2="effect1_dropShadow_1309_645" result="shape"/>
</filter>
<filter id="filter8_d_1309_645" x="414" y="860" width="243.417" height="243.27" filterUnits="userSpaceOnUse" color-interpolation-filters="sRGB">
<feFlood flood-opacity="0" result="BackgroundImageFix"/>
<feColorMatrix in="SourceAlpha" type="matrix" values="0 0 0 0 0 0 0 0 0 0 0 0 0 0 0 0 0 0 127 0" result="hardAlpha"/>
<feOffset dx="30" dy="30"/>
<feComposite in2="hardAlpha" operator="out"/>
<feColorMatrix type="matrix" values="0 0 0 0 0 0 0 0 0 0 0 0 0 0 0 0 0 0 0.25 0"/>
<feBlend mode="normal" in2="BackgroundImageFix" result="effect1_dropShadow_1309_645"/>
<feBlend mode="normal" in="SourceGraphic" in2="effect1_dropShadow_1309_645" result="shape"/>
</filter>
</defs>
</svg>
