<svg width="8" height="15" viewBox="0 0 8 15" fill="none" xmlns="http://www.w3.org/2000/svg">
<path d="M1.17002 -9.53674e-07C1.31941 -0.000509262 1.46702 0.0324631 1.602 0.0964918C1.73698 0.160521 1.8559 0.25398 1.95002 0.37L6.78002 6.37C6.9271 6.54893 7.00751 6.77337 7.00751 7.005C7.00751 7.23662 6.9271 7.46107 6.78002 7.64L1.78002 13.64C1.61028 13.8442 1.36637 13.9726 1.10194 13.997C0.837517 14.0214 0.574236 13.9397 0.370019 13.77C0.165803 13.6003 0.0373788 13.3563 0.0129991 13.0919C-0.0113807 12.8275 0.0702806 12.5642 0.240019 12.36L4.71002 7L0.39002 1.64C0.267737 1.49321 0.19006 1.31447 0.16618 1.12492C0.142301 0.935376 0.173217 0.742951 0.255273 0.570424C0.337329 0.397897 0.467089 0.252485 0.6292 0.151395C0.79131 0.0503044 0.978986 -0.00223255 1.17002 -9.53674e-07Z" fill="black"/>
</svg>
