<svg width="21" height="21" viewBox="0 0 21 21" fill="none" xmlns="http://www.w3.org/2000/svg">
<path fill-rule="evenodd" clip-rule="evenodd" d="M14.2843 13.0366L18.9918 17.7441C19.1573 17.9097 19.2502 18.1342 19.2501 18.3683C19.25 18.6024 19.1569 18.8269 18.9914 18.9923C18.8258 19.1578 18.6013 19.2507 18.3672 19.2506C18.1331 19.2505 17.9086 19.1575 17.7432 18.9919L13.0357 14.2844C11.6284 15.3744 9.85879 15.8873 8.08678 15.7188C6.31477 15.5504 4.6735 14.7132 3.49684 13.3776C2.32018 12.0419 1.69654 10.3082 1.75276 8.52912C1.80899 6.75001 2.54088 5.05915 3.79952 3.8005C5.05817 2.54185 6.74904 1.80997 8.52815 1.75374C10.3073 1.69751 12.041 2.32116 13.3766 3.49782C14.7122 4.67447 15.5494 6.31575 15.7178 8.08776C15.8863 9.85976 15.3734 11.6294 14.2834 13.0366H14.2843ZM8.74992 14C10.1423 14 11.4777 13.4469 12.4622 12.4623C13.4468 11.4778 13.9999 10.1424 13.9999 8.75002C13.9999 7.35763 13.4468 6.02228 12.4622 5.03771C11.4777 4.05314 10.1423 3.50002 8.74992 3.50002C7.35753 3.50002 6.02217 4.05314 5.03761 5.03771C4.05304 6.02228 3.49992 7.35763 3.49992 8.75002C3.49992 10.1424 4.05304 11.4778 5.03761 12.4623C6.02217 13.4469 7.35753 14 8.74992 14Z" fill="#AAAAAA"/>
</svg>
