<svg width="50" height="50" viewBox="0 0 50 50" fill="none" xmlns="http://www.w3.org/2000/svg">
<path d="M10.4168 28.8124C10.4157 28.5012 10.4844 28.1937 10.6178 27.9125C10.7512 27.6313 10.9459 27.3835 11.1876 27.1874L23.6876 17.1249C24.0604 16.8185 24.528 16.651 25.0105 16.651C25.4931 16.651 25.9607 16.8185 26.3335 17.1249L38.8335 27.5416C39.2589 27.8952 39.5265 28.4034 39.5772 28.9543C39.628 29.5051 39.4579 30.0536 39.1043 30.4791C38.7507 30.9046 38.2425 31.1721 37.6916 31.2229C37.1407 31.2737 36.5922 31.1036 36.1668 30.7499L25.0001 21.4374L13.8335 30.4374C13.5276 30.6922 13.1553 30.854 12.7604 30.9038C12.3655 30.9535 11.9646 30.8891 11.6052 30.7182C11.2457 30.5472 10.9428 30.2769 10.7322 29.9391C10.5216 29.6014 10.4121 29.2104 10.4168 28.8124Z" fill="black"/>
</svg>
